<?xml version="1.0" encoding="utf-8"?>
<!DOCTYPE svg PUBLIC "-//W3C//DTD SVG 1.0//EN" "http://www.w3.org/TR/2001/REC-SVG-20010904/DTD/svg10.dtd">
<svg version="1.0" xmlns="http://www.w3.org/2000/svg" width="436px" height="436px" viewBox="0 0 436 436" preserveAspectRatio="xMidYMid meet">
 <g fill="#fdfdfd">
  <path d="M0 218 l0 -218 218 0 218 0 0 218 0 218 -218 0 -218 0 0 -218z m30.35 191.05 c0.90 -0.45 13.75 -12.90 28.55 -27.65 25.45 -25.40 27.05 -26.90 28.70 -26.90 1.55 0 1.85 0.20 2.05 1.40 1.60 7.60 3.20 13.20 4.45 15.35 0.35 0.55 1.25 2.30 2 3.90 1.40 2.90 1.80 3.50 3.55 5.40 0.45 0.50 0.85 1.20 0.85 1.45 0 0.30 0.15 0.50 0.40 0.50 0.20 0 0.80 0.70 1.35 1.55 0.55 0.85 1.90 2.15 3 2.95 1.10 0.75 2.70 2 3.50 2.80 1.60 1.45 11.70 6.70 12.95 6.70 0.40 0 0.85 0.20 1 0.45 0.15 0.25 1 0.55 1.90 0.70 0.90 0.15 2.90 0.60 4.40 0.95 4.95 1.15 26.50 0.65 27.30 -0.65 0.15 -0.25 0.70 -0.45 1.30 -0.45 2.40 0 14.20 -4.80 16.10 -6.55 0.30 -0.25 0.80 -0.45 1.15 -0.45 0.75 0 5.95 -3.30 8.70 -5.60 3.35 -2.70 10.95 -10.15 10.95 -10.70 0 -0.30 0.70 -1.15 1.50 -1.95 0.85 -0.80 1.50 -1.70 1.50 -2 0 -0.35 0.45 -1 1 -1.50 0.55 -0.50 1 -1.20 1 -1.50 0 -0.35 0.35 -0.90 0.75 -1.25 0.40 -0.35 1.35 -1.85 2.10 -3.35 0.75 -1.55 1.70 -2.90 2.15 -3 0.45 -0.10 1.15 -1.10 1.65 -2.20 0.45 -1.05 1.20 -1.95 1.60 -1.95 0.40 0 0.75 -0.20 0.75 -0.50 0 -0.25 0.45 -0.50 1 -0.50 0.65 0 1 -0.35 1 -1 0 -0.65 0.35 -1 1 -1 0.55 0 1 -0.20 1 -0.50 0 -0.25 0.80 -0.50 1.80 -0.50 2 0 3.15 1.05 3.20 2.85 0 0.70 0.50 1.30 1.50 1.75 1.15 0.50 1.50 0.95 1.50 2 0 0.80 0.20 1.40 0.40 1.40 0.60 0 1.60 2.35 1.60 3.75 0 0.70 0.40 1.45 1 1.75 0.55 0.30 1 1.05 1 1.65 0 0.60 1.05 3.30 2.35 5.95 2.30 4.65 2.50 4.90 3.95 4.90 l1.60 0 0.35 6.35 c0.35 6.15 0.45 6.45 2.15 9 0.95 1.45 1.95 2.65 2.15 2.65 0.25 0 0.45 0.30 0.45 0.65 0 0.30 1.25 1 2.75 1.45 2.50 0.80 2.95 0.80 4.90 0.15 1.15 -0.40 2.50 -0.75 3 -0.75 0.45 0 0.85 -0.35 0.85 -0.75 0 -1 2.95 -1 3.70 0.05 0.55 0.70 1.50 1.05 6.80 2.30 1.25 0.30 5.30 0.55 9 0.55 6.25 -0.05 8.60 -0.25 16.90 -1.65 5.80 -0.95 9.35 -1.50 12.85 -2 4.65 -0.60 8.55 -1.30 11 -1.95 1.10 -0.25 2.70 -0.65 3.50 -0.80 2.10 -0.45 7.55 -3.20 8.55 -4.30 0.45 -0.55 1.10 -0.95 1.40 -0.95 0.70 0 7.80 -7.55 7.80 -8.30 0 -0.30 0.35 -0.85 0.75 -1.20 0.90 -0.75 3.25 -5.45 3.25 -6.50 0 -0.45 0.20 -1 0.40 -1.30 0.40 -0.40 3.10 -8.70 4.05 -12.45 0.25 -0.80 0.65 -2.40 0.95 -3.50 0.60 -2.15 2.35 -9.50 2.85 -12 0.85 -4.25 2.10 -9.60 3.25 -14.25 0.25 -0.95 0.70 -3 1.05 -4.50 0.30 -1.50 0.75 -3.25 1 -3.90 0.25 -0.65 0.45 -1.80 0.45 -2.60 0 -0.80 0.20 -1.55 0.45 -1.70 0.25 -0.15 0.55 -1.15 0.70 -2.15 0.15 -1.05 0.55 -3 0.85 -4.40 0.55 -2.55 1.05 -5.05 2.10 -10.50 0.60 -3.10 0.65 -16.40 0.15 -30.10 -0.20 -5.20 -0.15 -7.65 0.20 -7.65 0.30 0 0.55 -0.65 0.55 -1.50 0 -0.80 0.25 -1.50 0.50 -1.50 0.30 0 0.50 -0.40 0.50 -0.90 0 -0.50 0.20 -1.10 0.45 -1.35 0.25 -0.30 0.90 -1.30 1.45 -2.30 2 -3.65 2.35 -4.20 2.65 -4.45 0.80 -0.60 6.45 -12.60 7.45 -15.75 0.65 -1.90 1.30 -3.95 1.55 -4.50 0.20 -0.55 0.50 -1.80 0.65 -2.75 0.15 -0.95 0.50 -3 0.80 -4.50 1.40 -7.10 1.40 -20.90 0 -27.25 -0.30 -1.35 -0.70 -3.25 -0.85 -4.10 -0.20 -1.40 -0.45 -1.65 -1.70 -1.65 -1.30 0 -1.45 -0.15 -1.45 -1.75 0 -0.95 0.25 -1.75 0.50 -1.75 0.30 0 0.50 -0.35 0.50 -0.70 0 -0.40 0.55 -1.35 1.25 -2.10 0.70 -0.75 1.25 -1.65 1.25 -2 0 -0.40 0.20 -0.70 0.45 -0.70 0.25 0 0.65 -0.50 0.85 -1.10 0.15 -0.60 1.90 -3.80 3.80 -7.10 6.15 -10.65 15.35 -30 18.95 -39.80 0.55 -1.50 1.65 -4.45 2.45 -6.50 2 -5.35 5 -14.90 5 -16.05 0 -0.50 0.25 -0.95 0.50 -0.95 0.30 0 0.50 -0.50 0.50 -1.10 0 -0.60 0.55 -3.20 1.25 -5.85 3.90 -15.15 6.10 -34.55 5.50 -49.05 -0.35 -9.30 -1.50 -19.20 -2.60 -22.40 -1.05 -3.15 -3.45 -6.60 -4.55 -6.60 -0.30 0 -0.60 -0.30 -0.75 -0.70 -0.15 -0.40 -1.75 -0.90 -3.95 -1.25 -2 -0.30 -4.75 -0.85 -6.15 -1.15 -4.25 -0.90 -32.05 -1.25 -39 -0.50 -3.30 0.40 -6.25 0.90 -6.55 1.15 -0.30 0.25 -2.60 0.60 -5.15 0.80 -2.50 0.15 -4.55 0.45 -4.55 0.65 0 0.20 -1.35 0.50 -3 0.65 -1.70 0.15 -3.30 0.45 -3.65 0.75 -0.35 0.25 -1.85 0.60 -3.35 0.75 -1.50 0.20 -2.80 0.55 -2.90 0.85 -0.10 0.25 -1 0.50 -2 0.50 -1 0 -2.30 0.35 -2.80 0.75 -0.55 0.40 -1.50 0.75 -2.10 0.75 -0.60 0 -1.20 0.20 -1.30 0.40 -0.15 0.35 -4.35 1.70 -11 3.45 -1.60 0.45 -2.90 0.95 -2.90 1.20 0 0.20 -0.65 0.50 -1.50 0.70 -0.80 0.20 -1.60 0.55 -1.75 0.80 -0.20 0.25 -1.20 0.45 -2.30 0.45 -1.30 0 -1.95 0.20 -1.95 0.70 0 0.70 -1.45 1.30 -3.15 1.30 -0.50 0 -1.40 0.45 -2 1 -0.60 0.60 -1.65 1.15 -2.35 1.35 -0.70 0.15 -3.95 1.60 -7.20 3.20 -3.30 1.65 -6.40 2.95 -6.90 2.95 -0.50 0 -1.50 0.55 -2.20 1.20 -0.75 0.65 -2.20 1.45 -3.25 1.80 -1.05 0.35 -1.95 0.80 -1.95 1 0 0.20 -1.35 1 -3 1.80 -1.65 0.80 -3 1.60 -3 1.85 0 0.20 -0.30 0.35 -0.60 0.35 -0.35 0 -1.65 0.70 -2.90 1.50 -1.25 0.80 -2.55 1.50 -2.90 1.50 -0.35 0 -0.90 0.25 -1.25 0.50 -2.50 2.10 -3.15 2.50 -4.20 2.50 -0.60 0 -1.15 0.30 -1.15 0.65 0 0.60 -6 4.85 -6.95 4.85 -0.25 0 -0.70 0.30 -0.90 0.70 -0.45 0.75 -3.15 2.05 -5.25 2.50 -0.90 0.20 -1.40 0.65 -1.40 1.25 0 0.55 -2.70 2.90 -7.60 6.55 -4.20 3.15 -8.80 6.65 -10.20 7.85 -3.25 2.75 -5.50 2.85 -9.95 0.65 -1.65 -0.80 -3.35 -1.50 -3.75 -1.50 -0.45 0 -1 -0.20 -1.25 -0.40 -0.65 -0.55 -3.35 -1.35 -10.75 -3.05 -8.10 -1.90 -10.10 -2.10 -20 -2.05 -8.55 0.05 -11.85 0.30 -12.30 1.05 -0.15 0.25 -1.20 0.45 -2.40 0.45 -1.15 0 -2.30 0.20 -2.55 0.40 -0.30 0.25 -1.85 0.75 -3.50 1.10 -1.65 0.40 -3.90 1.10 -5 1.60 -1.10 0.50 -2.75 0.90 -3.60 0.90 -1.15 0 -1.65 0.25 -1.65 0.75 0 0.40 -0.30 0.75 -0.65 0.75 -0.35 0 -1.50 0.45 -2.60 1 -1.10 0.55 -2.45 1 -3.05 1 -0.60 0 -1.20 0.20 -1.30 0.40 -0.25 0.70 -4.50 3.60 -5.25 3.60 -0.40 0 -1.20 0.50 -1.85 1.15 -1.25 1.25 -7.45 5.85 -8.90 6.60 -0.50 0.25 -0.90 0.75 -0.90 1.10 0 0.35 -0.45 0.65 -1 0.65 -0.55 0 -1 0.25 -1 0.60 0 0.35 -17.55 18.15 -39 39.65 -21.45 21.45 -39.30 39.45 -39.65 40 -2.40 3.45 -2.05 7.15 0.85 10.60 3.25 3.75 4.80 4.10 28.05 6.10 13 1.15 27.15 2.60 30.50 3.15 1.95 0.30 4.45 0.50 5.60 0.45 1.85 -0.10 13 1 17.80 1.75 1.60 0.25 1.85 0.45 1.85 1.70 0 1.55 -2.90 8.50 -3.55 8.50 -0.25 0 -0.45 0.45 -0.45 1 0 0.55 -0.20 1 -0.50 1 -0.25 0 -0.50 0.55 -0.50 1.15 0 0.65 -0.45 2.50 -1 4.15 -1.65 5 -1.10 16.45 0.95 18.90 0.30 0.35 0.65 1.55 0.85 2.70 0.20 1.15 0.55 2.10 0.80 2.10 0.25 0 0.85 0.85 1.30 1.90 0.90 2 2.05 3.50 4.25 5.65 0.75 0.75 1.35 1.75 1.35 2.25 0 0.50 0.65 1.60 1.45 2.45 1.60 1.65 4.55 7.15 4.55 8.40 0 0.45 0.45 1.55 1 2.45 0.55 0.90 1 2.15 1 2.75 0 0.60 0.25 1.25 0.50 1.40 0.30 0.20 0.50 2.75 0.50 6.05 0 7.05 -0.40 7.95 -4 8.40 -1.40 0.20 -2.50 0.55 -2.50 0.80 0 0.30 -4.75 0.55 -11.60 0.60 l-11.60 0.15 -2.65 11.25 c-1.50 6.20 -2.90 12.60 -3.20 14.20 -0.25 1.65 -0.65 3.80 -0.90 4.75 -0.25 1 -0.60 3.20 -0.80 4.95 -0.25 2 -0.55 3.10 -1 3.10 -0.35 0 -0.75 0.45 -0.90 1 -0.15 0.70 -0.70 1 -1.55 1 -0.95 0 -1.30 0.25 -1.30 1 0 1.15 -10.30 12 -11.35 12 -0.35 0 -0.65 0.25 -0.65 0.60 0 0.80 -5.40 5.90 -6.25 5.90 -0.40 0 -0.75 0.40 -0.75 0.85 0 1 -22.20 23.15 -23.25 23.15 -0.40 0 -0.75 0.35 -0.75 0.75 0 0.85 -1.75 2.75 -2.50 2.75 -0.25 0 -0.50 0.20 -0.50 0.45 0 0.75 -5.55 6.05 -6.30 6.05 -0.40 0 -0.70 0.35 -0.70 0.85 0 0.80 -8.75 9.65 -9.60 9.65 -0.20 0 -0.40 0.30 -0.40 0.70 0 0.40 -0.40 1.05 -0.90 1.40 -1.65 1.20 -4.55 5.50 -4.90 7.20 -0.80 4.30 2 8.95 6.40 10.65 2.85 1.10 4.55 1 7.25 -0.40z m24.65 -98.80 c1.95 -1.25 33.15 -32.15 35.10 -34.80 3 -4 2.85 -7.85 -0.40 -11.45 -3.10 -3.45 -8.35 -5.05 -10.55 -3.30 -0.50 0.40 -8.80 8.50 -18.45 18.05 -17.40 17.20 -19.70 19.85 -19.70 22.80 0 2.50 3.90 8.05 6.20 8.75 0.55 0.20 1.25 0.60 1.60 0.90 0.85 0.85 4.15 0.35 6.20 -0.95z"/>
  <path d="M217.50 288.30 c0 -0.35 -0.45 -0.80 -1 -0.95 -0.80 -0.20 -1 -0.70 -1 -2.20 0 -1.10 -0.40 -2.40 -1 -3.15 -0.70 -0.90 -1 -2.05 -1 -4.10 l0 -2.90 1.80 0 c1.35 0 1.85 0.25 2.05 1 0.15 0.55 0.45 1 0.75 1 0.75 0 2.30 1.70 2.45 2.75 0.15 0.55 0.75 1.10 1.45 1.25 0.70 0.15 1.30 0.70 1.40 1.25 0.10 0.55 0.40 1.20 0.65 1.50 0.25 0.25 0.45 1.15 0.45 2 0 1.30 -0.30 1.70 -1.75 2.40 -2.20 1.05 -5.25 1.15 -5.25 0.15z"/>
  <path d="M230.15 260.55 c-0.90 -0.45 -1.65 -1.05 -1.65 -1.30 0 -0.30 -2.60 -3.20 -5.75 -6.50 -5.25 -5.50 -5.75 -6.15 -5.75 -7.90 0 -1.50 0.25 -1.95 1.20 -2.30 0.65 -0.25 1.30 -0.85 1.45 -1.25 0.20 -0.45 0.75 -0.80 1.30 -0.80 0.55 0 1.15 -0.20 1.30 -0.50 0.15 -0.25 0.75 -0.50 1.30 -0.50 0.50 0 1.40 -0.45 1.95 -1 0.55 -0.55 1.25 -1 1.50 -1 0.30 0 0.50 -0.20 0.50 -0.50 0 -0.25 1.10 -0.50 2.45 -0.50 1.40 0 2.65 -0.20 2.80 -0.50 0.15 -0.25 1.55 -0.50 3.05 -0.50 l2.70 0 0 3.45 c0 2.60 0.20 3.50 0.75 3.75 0.40 0.15 0.75 0.85 0.75 1.55 0 1.65 -1.50 8.35 -2 9 -0.20 0.30 -0.80 2.25 -1.25 4.40 l-0.85 3.85 -2.10 -0.05 c-1.10 -0.05 -2.80 -0.45 -3.65 -0.90z"/>
  <path d="M244.50 202.50 c0 -0.55 -0.20 -1 -0.50 -1 -0.25 0 -0.50 -0.45 -0.50 -1 0 -0.55 -0.20 -1 -0.50 -1 -0.25 0 -0.50 -0.90 -0.50 -2 0 -1.10 -0.20 -2 -0.50 -2 -0.30 0 -0.50 -1.50 -0.50 -3.50 0 -1.90 -0.15 -3.50 -0.40 -3.50 -0.50 0 -1.60 -3.65 -1.60 -5.30 0 -1.20 0.10 -1.30 1.90 -1.05 2.80 0.35 5.85 1.65 6 2.55 0.10 0.45 0.50 0.80 0.90 0.80 0.40 0 0.70 0.25 0.70 0.50 0 0.30 0.35 0.50 0.75 0.50 0.40 0 0.75 0.25 0.75 0.50 0 0.30 0.35 0.50 0.75 0.50 0.40 0 0.75 0.25 0.75 0.50 0 0.30 0.55 0.50 1.25 0.50 1.15 0 1.25 0.20 1.25 2.20 0 1.30 -0.30 2.55 -0.75 3 -0.40 0.40 -0.75 1.05 -0.75 1.40 0 0.35 -0.35 1.10 -0.75 1.60 -0.40 0.55 -0.75 1.60 -0.75 2.40 0 0.75 -0.20 1.40 -0.50 1.40 -0.25 0 -0.60 0.55 -0.80 1.20 -0.30 1.30 -1.45 1.80 -4.05 1.80 -1.30 0 -1.65 -0.20 -1.65 -1z"/>
  <path d="M107 180.25 c-2.45 -0.60 -23.05 -2.80 -26 -2.75 -1.25 0 -5.40 -0.30 -9.25 -0.75 -3.85 -0.40 -7.40 -0.75 -7.85 -0.75 -0.70 0 -0.90 -0.40 -0.90 -1.85 0 -1.85 1 -2.90 28.65 -30.40 31.25 -31.05 32.15 -31.95 36.70 -35.30 7.85 -5.90 22.40 -11.45 30.05 -11.45 1.55 0 4.40 -0.25 6.30 -0.50 3.70 -0.55 16.40 0.10 19.05 0.95 0.85 0.25 2.45 0.75 3.65 1.05 1.95 0.50 2.10 0.65 2.10 2.20 0 1.40 -0.65 2.25 -4.35 5.85 -5.35 5.20 -13.50 13.70 -17 17.70 -5.35 6.15 -9.50 11.10 -12.35 14.75 -1.65 2.05 -3.60 4.35 -4.40 5.15 -0.75 0.75 -1.40 1.55 -1.40 1.80 0 0.80 -2.75 3.20 -5.45 4.70 -3.60 2.05 -10.80 9.20 -13.65 13.60 -2.50 3.90 -5.75 10.20 -7.15 13.90 l-0.90 2.35 -4.15 0 c-2.30 0 -4.20 -0.20 -4.20 -0.45 0 -0.70 -1.65 -1.15 -2 -0.50 -0.40 0.55 -4.10 1.05 -5.50 0.70z"/>
  <path d="M262.50 171.15 c-1.05 -0.45 -1.90 -1.15 -4.75 -4 -2.25 -2.25 -2.70 -3.10 -3.25 -5.65 -0.80 -3.80 -0.35 -9.80 0.95 -12.70 1.70 -3.90 6 -7.25 10.20 -8.05 1.05 -0.20 4.05 -0.20 6.65 0 3.70 0.25 5 0.55 5.75 1.30 0.50 0.50 1.10 0.95 1.25 0.95 0.15 0 1.15 0.65 2.15 1.45 2.85 2.25 4.20 5.50 4.45 10.55 l0.20 4.25 -3.50 1.65 c-4.25 2 -8.65 5 -12 8.25 -2.30 2.15 -2.70 2.35 -4.95 2.30 -1.30 0 -2.75 -0.15 -3.15 -0.30z"/>
  <path d="M351 166 c0 -0.55 -0.35 -1 -0.75 -1 -0.40 0 -0.75 -0.20 -0.75 -0.45 0 -0.55 -6.10 -3.50 -9.90 -4.85 -5.70 -2 -13.45 -3.15 -28.10 -4.10 l-5.25 -0.35 -0.40 -3.50 c-0.20 -1.90 -0.70 -4.15 -1.05 -5 -0.40 -0.80 -1.20 -2.75 -1.85 -4.25 -1.05 -2.60 -4.10 -7.35 -6.40 -9.95 -0.60 -0.65 -1.05 -1.40 -1.05 -1.65 0 -0.20 -0.20 -0.40 -0.50 -0.40 -0.25 0 -1.45 -0.90 -2.60 -2 -1.20 -1.10 -2.45 -2 -2.75 -2 -0.35 0 -0.65 -0.20 -0.65 -0.45 0 -0.25 -0.80 -0.75 -1.75 -1.05 -0.95 -0.30 -1.75 -0.80 -1.75 -1.05 0 -0.25 -0.35 -0.45 -0.80 -0.45 -0.45 0 -1.50 -0.30 -2.35 -0.70 -3.40 -1.50 -6.65 -2.30 -9.45 -2.30 -2.25 0 -2.90 -0.15 -2.90 -0.75 0 -0.40 -0.20 -0.75 -0.45 -0.75 -0.25 0 -0.55 0.35 -0.75 0.75 -0.20 0.55 -1 0.75 -2.70 0.75 -1.35 0 -3.30 0.35 -4.25 0.75 -1 0.40 -2.60 0.75 -3.60 0.75 -1.05 0 -1.75 0.25 -1.75 0.65 0 0.30 -1.65 1.50 -3.65 2.60 -4.50 2.50 -9.80 7.45 -12.65 11.85 -1.20 1.80 -3.10 5.65 -4.20 8.45 -1.85 4.80 -2 5.45 -2 10.30 l0 5.15 -1.75 0 c-0.95 0 -1.75 -0.20 -1.75 -0.50 0 -0.25 -0.30 -0.50 -0.65 -0.50 -0.40 0 -2.15 -1.40 -3.95 -3.10 -1.80 -1.75 -3.55 -3.40 -3.95 -3.65 -2.75 -2.05 -5.50 -3.75 -6.05 -3.75 -0.35 0 -1.20 -0.45 -1.90 -1 -0.70 -0.55 -1.65 -1 -2.10 -1 -0.45 0 -1.50 -0.25 -2.25 -0.55 -0.75 -0.30 -1.85 -0.75 -2.40 -0.95 -1 -0.40 -2 -0.65 -6.25 -1.50 -1.25 -0.25 -3 -0.60 -3.85 -0.80 -1.30 -0.25 -1.65 -0.15 -1.65 0.50 0 1.30 -3.30 1.10 -3.65 -0.20 -0.15 -0.70 -0.50 -0.90 -1.05 -0.70 -1.10 0.40 -8.95 -0.85 -9.40 -1.50 -0.85 -1.20 -0.35 -3.45 1.10 -4.95 0.80 -0.90 3.20 -3.55 5.30 -5.95 2.10 -2.35 6.60 -7 9.90 -10.30 24.65 -24.25 52.30 -44.35 80.30 -58.40 10.80 -5.40 15.05 -7.20 16.95 -7.20 1.05 0 8.55 7.25 38.95 37.65 42.35 42.35 38.80 38 36.05 44.15 -4 8.90 -9 18.65 -10.30 20.10 -0.35 0.35 -0.65 1 -0.65 1.40 0 0.40 -0.20 0.70 -0.45 0.70 -0.25 0 -0.55 0.70 -0.70 1.50 -0.25 1.05 -0.60 1.50 -1.35 1.50 -0.80 0 -1 0.35 -1 1.75 0 0.95 -0.20 1.75 -0.50 1.75 -0.25 0 -0.50 0.35 -0.50 0.75 0 0.50 -0.55 0.75 -1.75 0.75 -1.40 0 -1.75 -0.20 -1.75 -1z"/>
  <path d="M377 108.25 c0 -0.40 -0.35 -0.75 -0.75 -0.75 -0.60 0 -55.30 -54.25 -57.85 -57.45 -0.50 -0.60 -0.90 -1.70 -0.90 -2.45 0 -1.25 0.25 -1.40 4.15 -2.55 3.95 -1.15 9.70 -2.45 19.85 -4.55 2.60 -0.50 8.15 -1.20 12.25 -1.55 8.10 -0.65 25.65 -0.70 30.50 -0.10 l2.95 0.40 0.70 5.75 c0.70 6.10 0.50 22.45 -0.40 28.25 -0.25 1.65 -0.70 5.15 -0.95 7.75 -0.50 4.65 -3.20 17.55 -4.80 23 -0.45 1.50 -0.95 3.25 -1.10 3.90 -0.20 0.85 -0.60 1.10 -1.95 1.10 -1.20 0 -1.70 -0.25 -1.70 -0.75z"/>
 </g>
 <g fill="#000000">
  <path d="M21.60 410.95 c-1.85 -0.75 -3.10 -1.65 -4.35 -3.30 -2 -2.60 -2.45 -4.50 -2.15 -8.65 0.20 -3.10 1.55 -5.55 4.60 -8.55 1.30 -1.25 1.40 -1.55 0.80 -1.95 -0.60 -0.40 -0.55 -0.50 0.25 -0.50 0.55 0 1.55 -0.50 2.20 -1.05 1.05 -0.85 1.15 -1.10 0.50 -1.50 -0.55 -0.40 -0.50 -0.45 0.30 -0.35 1.15 0.20 7.90 -6.10 6.85 -6.45 -0.80 -0.30 -0.25 -1.15 0.80 -1.15 0.45 0 1.30 -0.35 1.85 -0.80 0.85 -0.65 0.90 -0.80 0.25 -1.25 -0.60 -0.40 -0.60 -0.50 0.20 -0.35 1.30 0.20 4.60 -3.10 3.70 -3.65 -0.45 -0.30 -0.30 -0.45 0.50 -0.45 1.30 0 3.65 -2.05 2.70 -2.40 -0.90 -0.30 -0.20 -1.10 0.95 -1.10 0.55 0 2.25 -1.25 3.80 -2.80 2.10 -2.20 2.60 -2.95 2.10 -3.30 -0.50 -0.30 -0.40 -0.40 0.35 -0.30 1.45 0.20 7.65 -6 6.65 -6.70 -0.50 -0.35 -0.45 -0.40 0.35 -0.30 0.75 0.10 2.35 -1.15 5.75 -4.55 2.80 -2.75 4.45 -4.75 4.05 -4.90 -0.85 -0.35 -0.25 -1.15 0.90 -1.15 0.55 0 2.25 -1.25 3.85 -2.80 2.25 -2.15 2.70 -2.85 2.15 -3.20 -0.60 -0.40 -0.60 -0.50 0.10 -0.75 0.50 -0.20 1.05 -0.20 1.30 -0.05 0.25 0.15 2.85 -2.20 5.80 -5.25 4.10 -4.20 5.30 -5.70 5.05 -6.40 -0.20 -0.70 0 -1.05 0.70 -1.30 0.60 -0.15 1.25 -0.20 1.50 0 0.25 0.15 0.60 0.05 0.75 -0.20 0.20 -0.25 0.10 -0.60 -0.15 -0.80 -0.65 -0.40 -0.10 -1.75 0.70 -1.75 0.35 0 0.80 0.30 0.90 0.65 0.15 0.35 0.30 0.25 0.30 -0.25 0.05 -0.50 0.35 -0.90 0.70 -0.90 0.55 0 0.70 2 0.65 10.40 0 9.45 0.10 10.75 1.15 14.60 0.65 2.35 1.30 5.15 1.40 6.25 0.20 1.85 0.05 2.20 -2.05 4.25 -2.05 1.95 -2.30 2.10 -2.30 1.10 0 -0.60 -0.15 -1.10 -0.35 -1.10 -0.15 0 -12.45 12.10 -27.25 26.90 -14.80 14.75 -27.75 27.25 -28.75 27.80 -2.75 1.40 -6.90 1.50 -10.05 0.25z"/>
  <path d="M239.15 399.30 c-1.75 -0.55 -3.15 -1.35 -3.15 -1.65 0 -0.35 -0.20 -0.65 -0.45 -0.65 -0.25 0 -1.15 -1.10 -2.05 -2.50 -0.90 -1.35 -1.90 -2.50 -2.30 -2.50 -0.40 0 -0.70 -0.20 -0.70 -0.50 0 -0.25 0.25 -0.50 0.50 -0.50 0.30 0 0.50 -0.80 0.50 -1.75 0 -1.20 -0.25 -1.75 -0.75 -1.75 -0.45 0 -0.75 -0.50 -0.75 -1.30 0 -0.85 0.20 -1.20 0.65 -1.05 0.45 0.15 0.55 -0.30 0.45 -1.70 -0.15 -1.20 -0.45 -1.95 -0.85 -1.95 -0.40 0 -0.80 -0.40 -0.95 -0.85 -0.25 -0.90 -1 -8.50 -1.60 -16 l-0.30 -4.15 1.75 0 c1.30 0 2.35 0.50 3.90 1.80 2.45 2.05 5.50 3.65 9.45 5 3.85 1.30 14 1.30 18.25 0 10.10 -3.10 18.90 -9.65 23.50 -17.55 1.70 -3 2 -3.25 3.55 -3.25 l1.70 0 0 7.40 0 7.45 -18.35 18.40 c-15.15 15.20 -18.65 18.45 -19.90 18.55 -1.85 0.20 -2.75 0.40 -6 1.40 -1.35 0.45 -2.60 0.75 -2.75 0.75 -0.15 -0.05 -1.65 -0.55 -3.35 -1.15z"/>
  <path d="M120.30 388.30 c-2.70 -0.85 -5.60 -3.45 -7.05 -6.30 -1.65 -3.25 -1.75 -8.65 -0.20 -12 0.55 -1.20 1.25 -2.40 1.60 -2.60 0.35 -0.20 3.25 -0.40 6.55 -0.40 14.60 0 26.55 -3.45 35.65 -10.30 4.35 -3.25 6.65 -3.70 6.65 -1.25 0 1.30 -2.10 3.55 -15 16.40 -8.25 8.20 -15.85 15.35 -16.85 15.85 -2.20 1.20 -8.55 1.55 -11.35 0.60z"/>
  <path d="M308 338.20 c0 -2.85 9.90 -45.15 11.35 -48.45 6.65 -15.20 7.55 -18.55 8 -29.30 0.20 -4.80 0.05 -7.60 -0.60 -11.50 -0.50 -2.85 -1.05 -5.50 -1.20 -5.80 -0.20 -0.40 -2.20 1.20 -5.55 4.55 -2.90 2.80 -5.75 5.40 -6.35 5.75 -0.75 0.35 -5.30 0.55 -14.25 0.55 l-13.20 0 -2.15 9.65 c-1.20 5.25 -2.30 9.90 -2.45 10.25 -0.15 0.40 0.40 0.60 1.85 0.60 2 0 2.05 0.05 2.05 1.70 0 1.45 -0.40 1.95 -3.10 4.10 -3.15 2.50 -8.25 6.10 -15.95 11.30 -3.55 2.35 -4.70 2.90 -6.40 2.90 -1.90 0 -2.05 -0.10 -2.05 -1.35 0.05 -0.80 1.80 -8.95 3.95 -18.15 3 -12.80 4.15 -16.85 4.80 -17.25 3.50 -2 27.05 -22.50 34.35 -29.85 1.75 -1.85 2.70 -2.40 3.85 -2.40 1.40 0 1.55 0.15 1.55 1.50 l0 1.50 13.20 0 13.20 0 1.35 -5.60 c4.10 -17.45 5.65 -26.50 6.10 -36 l0.30 -6.35 4.05 -6.25 c2.25 -3.40 5.10 -7.90 6.45 -10 2 -3.20 2.60 -3.80 3.75 -3.80 1.30 -0.05 1.35 -0.05 0.35 -0.85 -1 -0.75 -1 -0.75 0.15 -0.50 0.75 0.15 1.10 0.05 1.10 -0.45 0 -0.40 -0.20 -0.70 -0.50 -0.70 -0.25 0 -0.50 -0.25 -0.50 -0.55 0 -0.35 0.45 -0.45 1.15 -0.30 1.05 0.30 1.05 0.30 0.15 -0.40 -0.95 -0.75 -0.95 -0.75 0.10 -0.75 1.20 0 1.50 -0.75 0.50 -1.20 -0.35 -0.15 -0.20 -0.25 0.35 -0.15 0.55 0.05 1.25 -0.30 1.60 -0.90 0.95 -1.55 7.35 -14.60 9.10 -18.50 l1.60 -3.45 -37.60 -37.60 -37.60 -37.60 -2.80 1.15 c-11.20 4.60 -29.75 14.85 -43.90 24.30 -20.55 13.75 -44.65 34.35 -58.85 50.35 -2.10 2.40 -4.50 5.05 -5.30 5.95 -1.35 1.40 -1.40 1.65 -0.75 2.30 1.35 1.35 -0.25 1.75 -8.75 2 -8.75 0.25 -14 1.15 -20.85 3.60 -2 0.70 -4.55 1.25 -5.70 1.25 l-2.10 0 1.35 -1.30 c1.45 -1.50 1.60 -2 0.70 -2.35 -0.35 -0.15 -0.20 -0.30 0.40 -0.30 1.10 -0.05 1.45 -0.45 5.95 -6.05 1.65 -2.05 4.55 -5.55 6.40 -7.75 1.90 -2.20 3.90 -4.55 4.45 -5.25 2.35 -2.85 6.50 -7.20 14.50 -15.30 l8.45 -8.60 -1.75 -0.60 c-0.95 -0.30 -2.65 -0.55 -3.80 -0.60 -1.10 0 -2 -0.20 -2 -0.40 0 -0.20 -0.60 -0.25 -1.30 -0.10 -0.80 0.15 -1.25 0.05 -1.05 -0.25 0.15 -0.25 0 -0.50 -0.40 -0.50 -0.40 0 -0.75 0.20 -0.75 0.45 0 0.25 -0.25 0.30 -0.55 0.10 -0.30 -0.15 -1.75 -0.40 -3.25 -0.50 -1.45 -0.05 -2.90 -0.25 -3.10 -0.40 -0.25 -0.15 -3.20 0.05 -6.55 0.50 -3.35 0.40 -6.30 0.60 -6.55 0.45 -0.30 -0.20 -0.80 -0.15 -1.10 0.10 -0.35 0.20 -1.20 0.45 -1.90 0.55 -8.30 1 -21.90 7.90 -29.70 15.10 -7.70 7.05 -58.80 58.40 -58.80 59.05 0 0.95 2.85 1.60 3.20 0.75 0.15 -0.40 0.35 -0.35 0.65 0.05 0.50 0.65 4 0.95 5.35 0.40 0.60 -0.25 1.05 -0.15 1.35 0.30 0.60 1 6.35 0.95 7 -0.05 0.40 -0.65 0.55 -0.65 1.10 0.10 0.80 1.05 3.20 1.55 3.55 0.75 0.15 -0.45 0.35 -0.45 0.65 -0.05 0.55 0.80 4.15 1.25 4.15 0.50 0 -0.30 0.20 -0.25 0.45 0.15 0.30 0.50 1.05 0.60 2.50 0.40 1.25 -0.15 2.05 -0.05 2.05 0.25 0 0.30 0.85 0.40 2 0.30 1.10 -0.10 2 -0.05 2 0.15 0 0.60 3.75 0.80 4.15 0.25 0.25 -0.40 0.45 -0.35 0.75 0.10 0.55 0.80 4.25 0.95 4.50 0.20 0.25 -0.85 3.90 -0.75 4.80 0.15 0.90 0.90 2.65 1 2.90 0.15 0.20 -0.50 0.50 -0.50 1.55 -0.05 0.80 0.40 1.35 0.45 1.35 0.15 0 -0.30 0.25 -0.50 0.50 -0.50 0.80 0 0.55 3.15 -0.50 6.25 -2.50 7.20 -4.70 17.65 -5.25 24.75 -0.65 8.30 1.85 18.60 6.90 28.55 2.75 5.35 3.30 6.20 14 20.80 10.35 14.20 14.85 22.25 14.85 26.60 0 2 -0.05 2.05 -1.70 2.05 -1.50 0 -2.85 -1.20 -15.30 -13.60 -7.50 -7.50 -14 -14.20 -14.40 -14.90 -0.45 -0.70 -1.85 -2.45 -3.10 -3.90 -1.25 -1.45 -2.25 -2.80 -2.25 -3 -0.05 -0.90 -2.05 -3.65 -2.85 -3.90 -0.50 -0.15 -0.80 -0.45 -0.65 -0.70 0.45 -0.70 -0.30 -2 -1.20 -2 -0.70 0 -0.70 -0.10 -0.05 -0.50 0.65 -0.40 0.55 -0.55 -0.35 -0.80 -0.65 -0.20 -1 -0.50 -0.85 -0.75 0.15 -0.25 -0.05 -0.45 -0.40 -0.45 -0.50 0 -0.50 -0.10 0.05 -0.45 0.45 -0.30 0.50 -0.70 0.15 -1.35 -0.30 -0.55 -0.50 -1.15 -0.50 -1.45 0 -0.25 -0.45 -0.60 -0.95 -0.80 -0.50 -0.20 -0.65 -0.40 -0.30 -0.40 0.35 -0.05 0.55 -0.35 0.45 -0.65 -0.10 -0.35 -0.50 -1.70 -0.80 -3 -0.35 -1.40 -0.90 -2.40 -1.30 -2.40 -0.40 0 -0.70 -0.20 -0.70 -0.50 0 -0.25 0.20 -0.50 0.45 -0.50 0.25 0 0.55 -0.75 0.75 -1.60 0.25 -1.20 0.10 -1.80 -0.45 -2.20 -0.40 -0.30 -0.75 -1.05 -0.75 -1.65 0 -1.15 0.80 -1.45 1.15 -0.40 0.10 0.30 0.15 -0.40 0.05 -1.65 -0.05 -1.20 -0.40 -2.30 -0.65 -2.40 -0.80 -0.25 -0.65 -1.10 0.15 -1.10 1.15 0 3.45 -7.05 2.40 -7.40 -0.95 -0.30 -0.70 -1.10 0.40 -1.10 0.65 0 1 -0.35 1 -1 0 -0.55 -0.20 -1 -0.50 -1 -0.25 0 -0.50 -0.20 -0.50 -0.50 0 -0.25 0.60 -0.50 1.40 -0.50 1.20 -0.05 1.25 -0.10 0.50 -0.70 -1.10 -0.80 -1.15 -1.30 -0.15 -1.30 0.40 0 0.75 0.30 0.80 0.65 0 0.30 0.55 -0.50 1.15 -1.90 0.65 -1.35 1.10 -2.55 1.05 -2.65 -0.35 -0.50 -14 -1.70 -24.35 -2.20 -0.80 0 -1.40 -0.25 -1.40 -0.55 0 -0.25 -0.30 -0.25 -0.65 0.10 -0.40 0.30 -0.85 0.40 -1.05 0.20 -0.40 -0.40 0.10 -0.35 -9.55 -1.35 -9.05 -1 -14.15 -1.40 -17.60 -1.50 -1.40 0 -2.45 -0.20 -2.35 -0.35 0.05 -0.15 -0.15 -0.30 -0.55 -0.30 -0.40 0 -0.75 0.20 -0.75 0.45 0 0.25 -0.25 0.30 -0.50 0.15 -0.30 -0.20 -1.60 -0.40 -2.90 -0.50 -1.30 -0.15 -3 -0.35 -3.85 -0.45 -0.80 -0.15 -3.75 -0.50 -6.50 -0.85 -6.05 -0.65 -9.25 -1.95 -11.55 -4.60 -2.90 -3.45 -3.50 -8.55 -1.40 -12.55 0.50 -1 18.60 -19.45 40.15 -41 29.55 -29.60 39.10 -39.45 38.85 -40.05 -0.25 -0.70 -0.10 -0.80 0.95 -0.55 0.85 0.20 1.25 0.10 1.25 -0.30 0 -0.35 0.40 -0.90 0.90 -1.15 1.05 -0.55 7.15 -5 8.75 -6.40 0.90 -0.75 0.95 -1 0.35 -1.40 -0.55 -0.40 -0.35 -0.45 0.70 -0.20 1.15 0.25 1.95 -0.05 3.85 -1.35 1.35 -0.90 2.45 -1.95 2.45 -2.35 0 -0.45 0.35 -0.55 1.10 -0.40 1.50 0.40 4.60 -0.95 4.25 -1.90 -0.25 -0.50 0.25 -0.85 1.60 -1.25 1.10 -0.30 2.30 -0.40 2.70 -0.20 0.90 0.35 5.35 -1.50 5.35 -2.20 0 -0.80 2.60 -1.25 3.05 -0.50 0.35 0.50 0.45 0.45 0.45 -0.15 0 -1.20 1.40 -1.55 1.95 -0.55 0.45 0.80 0.50 0.80 0.80 0 0.25 -0.65 0.80 -0.80 2.55 -0.65 1.70 0.15 2.35 0 2.55 -0.55 0.20 -0.55 0.65 -0.70 1.45 -0.50 0.75 0.20 1.20 0.10 1.20 -0.25 0 -0.35 0.70 -0.40 2.05 -0.20 1.45 0.25 2.20 0.15 2.45 -0.30 0.35 -0.50 0.80 -0.50 2.40 0 2.45 0.85 11.15 0.55 12.25 -0.35 0.65 -0.55 0.85 -0.50 1.20 0.05 0.55 0.95 2.70 1.45 3.50 0.75 0.45 -0.40 0.65 -0.35 0.65 0.10 0 0.45 0.45 0.55 1.50 0.30 0.85 -0.15 1.50 -0.10 1.50 0.15 0 0.25 0.90 0.65 2 0.95 1.45 0.35 2 0.35 2 -0.10 0 -0.40 0.10 -0.40 0.40 0 0.60 0.95 1.85 1.05 2.45 0.25 0.55 -0.70 0.65 -0.65 0.95 0.35 0.35 1.20 1.45 1.50 1.85 0.50 0.15 -0.40 0.30 -0.25 0.30 0.30 0.05 0.75 0.20 0.80 0.80 0.30 0.40 -0.35 0.75 -0.40 0.75 -0.10 0 0.60 2.80 1.80 3.40 1.40 0.30 -0.15 0.65 0.05 0.80 0.50 0.20 0.50 0.70 0.70 1.30 0.55 0.50 -0.15 1 -0.10 1.10 0.10 0.25 0.45 5.55 3.05 6.35 3.05 0.40 0 1.85 -0.95 3.25 -2.15 1.40 -1.20 6 -4.70 10.20 -7.85 7.25 -5.40 8.40 -6.50 7 -6.50 -1 -0.05 1.15 -1.15 2.85 -1.50 1 -0.20 1.50 -0.60 1.45 -1.15 -0.10 -1 1.75 -1.70 2.30 -0.85 0.25 0.40 0.45 0.35 0.65 -0.20 0.20 -0.45 0.55 -0.80 0.90 -0.80 1.20 0 6.95 -4.25 6.95 -5.20 0 -0.70 0.25 -0.85 1.20 -0.60 0.75 0.20 1.55 -0.05 2.30 -0.70 0.60 -0.50 1.35 -1.05 1.65 -1.20 0.45 -0.15 0.40 -0.35 -0.10 -0.70 -0.55 -0.40 -0.45 -0.55 0.45 -0.85 0.65 -0.20 1.25 -0.15 1.45 0.15 0.45 0.80 5.15 -2.35 4.85 -3.20 -0.20 -0.50 0.20 -0.65 1.35 -0.60 2.10 0.05 5.05 -1.70 4.25 -2.50 -0.65 -0.65 -0.65 -0.60 2.10 -0.85 2.40 -0.25 5.50 -2.05 5.50 -3.25 0 -0.40 0.40 -0.50 1.15 -0.30 1.45 0.40 12.95 -5.15 12.60 -6.10 -0.10 -0.35 0.20 -0.60 0.75 -0.60 0.55 0 1 0.25 1 0.55 0 0.25 0.65 0.10 1.50 -0.40 0.85 -0.45 1.50 -1.15 1.50 -1.45 0 -0.85 5.30 -2.75 6.65 -2.45 1.35 0.35 3.75 -0.75 3.50 -1.55 -0.20 -0.65 2.15 -1.40 2.85 -0.95 0.30 0.20 0.50 0.05 0.50 -0.30 0 -0.30 0.40 -0.45 1 -0.30 1.40 0.35 5.90 -1.25 5.60 -2.05 -0.10 -0.30 0.05 -0.60 0.35 -0.60 0.25 0 1.10 -0.25 1.90 -0.55 0.75 -0.35 2.60 -0.60 4.05 -0.65 2 -0.05 2.85 -0.30 3.35 -1 0.40 -0.50 1.05 -0.80 1.45 -0.65 0.40 0.15 0.80 0.05 0.95 -0.30 0.10 -0.30 1 -0.55 2 -0.55 1 0 1.85 -0.20 1.85 -0.45 0 -0.25 0.90 -0.30 2 -0.10 1.60 0.25 2.05 0.15 2.30 -0.50 0.20 -0.50 0.70 -0.75 1.25 -0.60 0.55 0.15 0.95 0.05 0.95 -0.25 0 -0.30 0.55 -0.40 1.20 -0.20 0.75 0.20 1.30 0.05 1.40 -0.30 0.10 -0.30 1.10 -0.60 2.20 -0.60 1.05 -0.05 2.10 -0.25 2.30 -0.50 0.55 -0.80 2.05 -0.75 2.70 0.05 0.50 0.75 0.60 0.75 1.15 -0.20 0.55 -1.10 2.55 -1.05 2.55 0.05 0 0.30 0.35 0.15 0.70 -0.35 0.50 -0.65 1.05 -0.80 2 -0.55 0.85 0.20 1.30 0.10 1.30 -0.30 0 -0.40 0.60 -0.50 2 -0.25 1.30 0.20 2 0.15 2 -0.20 0 -0.35 0.80 -0.40 2.15 -0.25 1.70 0.25 2.25 0.15 2.50 -0.45 0.25 -0.70 0.55 -0.70 2.70 -0.05 3.65 1.10 22.80 0.95 23.95 -0.20 0.75 -0.75 0.85 -0.70 1.50 0.10 0.50 0.75 1.10 0.90 2.70 0.65 1.10 -0.15 2 -0.10 2 0.15 0 0.20 0.55 0.50 1.25 0.60 0.70 0.15 1.25 0.05 1.25 -0.30 0 -0.40 0.15 -0.40 0.40 0 0.45 0.65 5.10 1.70 5.10 1.15 0 -0.25 0.35 -0.45 0.75 -0.45 0.40 0 0.75 0.20 0.75 0.45 0 0.25 0.45 0.55 0.95 0.70 0.70 0.15 0.90 0.05 0.70 -0.45 -0.20 -0.60 -0.05 -0.65 1.05 -0.15 0.70 0.35 1.30 0.80 1.30 1.05 0 0.25 0.25 0.30 0.60 0.10 0.40 -0.25 0.45 -0.10 0.25 0.45 -0.15 0.50 -0.10 0.85 0.20 0.85 0.65 0 1.35 0.75 2.80 2.75 3 4.25 4.25 13.40 4.30 31.50 0.05 16.90 -0.20 20.75 -1.90 29.50 -0.75 3.85 -1.35 7.65 -1.35 8.50 0.05 0.80 -0.20 1.75 -0.50 2.10 -0.30 0.35 -0.40 0.65 -0.25 0.65 0.15 0 -0.25 1.95 -0.90 4.35 -0.70 2.45 -1.35 5.30 -1.55 6.40 -0.15 1.10 -0.50 2.10 -0.75 2.15 -0.25 0.10 -0.45 0.60 -0.45 1.10 0 1.10 -3 10.70 -5 16 -0.80 2.05 -1.90 5 -2.45 6.50 -3.60 9.80 -12.80 29.15 -18.95 39.80 -1.90 3.30 -3.65 6.50 -3.80 7.10 -0.20 0.60 -0.60 1.10 -0.85 1.10 -0.25 0 -0.45 0.35 -0.45 0.75 0 0.40 -0.50 1.20 -1.10 1.80 -0.65 0.60 -0.90 0.95 -0.65 0.80 0.30 -0.15 0.50 0.45 0.50 1.30 0.05 2.25 -8.70 15.35 -18.55 27.80 l-5.10 6.40 1.75 3.95 c0.95 2.20 2.60 7.15 3.65 11.05 1.60 5.95 2.05 8.55 2.55 15.85 1.65 23 -2.95 41.55 -14.85 59.55 -3.70 5.65 -5.95 8.15 -17.60 19.90 -8.50 8.55 -10.55 10.35 -11.70 10.35 -1.25 0 -1.40 -0.15 -1.40 -1.80z m72 -234.90 c0.30 -1.10 0.80 -2.65 1.05 -3.40 0.30 -0.75 0.40 -1.60 0.20 -1.95 -0.20 -0.30 -0.15 -0.70 0.10 -0.90 0.65 -0.40 3.20 -12.35 3.40 -15.80 0.15 -2.30 0.05 -2.75 -0.65 -2.80 -0.75 -0.05 -0.75 -0.10 -0.05 -0.30 1.05 -0.25 1.80 -3.80 2.40 -11.15 0.50 -6.65 0.45 -8.60 -0.35 -8.90 -0.85 -0.25 -0.75 -1.10 0.15 -1.10 0.45 0 0.75 -0.45 0.75 -1.25 0 -0.80 -0.30 -1.25 -0.75 -1.25 -0.40 0 -0.75 -0.35 -0.75 -0.80 0 -0.45 0.30 -0.70 0.65 -0.55 0.40 0.15 0.60 -0.30 0.55 -1.35 -0.05 -0.85 -0.10 -2.50 -0.15 -3.65 -0.05 -1.70 -0.25 -2.15 -0.90 -2.20 -0.55 0 -0.65 -0.15 -0.25 -0.30 0.70 -0.25 0.85 -4.45 0.15 -4.90 -0.45 -0.25 -11.15 -0.90 -15.55 -0.95 -1.25 0 -4.60 0.20 -7.50 0.40 -2.90 0.25 -6.55 0.40 -8.10 0.40 -1.60 0 -2.90 0.20 -2.90 0.45 0 0.25 -0.80 0.35 -1.80 0.20 -1.85 -0.25 -4.30 0.20 -15.95 2.70 -10.20 2.25 -14.70 3.65 -14.05 4.45 0.30 0.35 13.30 13.45 28.90 29.05 25.25 25.40 28.45 28.40 29.60 28.20 1 -0.20 1.40 -0.70 1.80 -2.35z"/>
  <path d="M119 321.35 c0 -3 1.35 -10.70 3.40 -19.60 l1.40 -6 1.75 -0.15 c1.55 -0.15 2.05 0.15 3.85 2.10 2.55 2.75 3.30 5.35 3 10.55 -0.30 5.10 -1 6.50 -6.05 11.65 -3.45 3.45 -4.35 4.10 -5.70 4.10 l-1.65 0 0 -2.65z"/>
  <path d="M189.40 320.45 c-2.15 -0.50 -4.80 -1.40 -5.90 -1.95 -1.80 -0.90 -2 -1.20 -2 -2.90 0 -1 0.25 -2.65 0.50 -3.60 1.20 -4.05 3.05 -14.60 3.35 -18.85 l0.30 -4.65 1.45 0 c1 0 2.35 0.80 4.60 2.70 4 3.40 7.40 4.65 10.55 3.85 2.05 -0.50 10.35 -4.15 17.40 -7.65 l3.40 -1.65 -3.80 -3.65 c-2.10 -2 -3.95 -3.55 -4.15 -3.40 -0.25 0.15 -15.30 -14.65 -33.45 -32.85 -38.20 -38.35 -34.90 -34.05 -34.90 -45.35 0.05 -6.60 0.45 -9.05 2.60 -16.10 l1.30 -4.40 2.05 0 c2 0 2.30 0.25 12.70 10.65 l10.60 10.65 0 2.75 c0 1.50 -0.35 3.95 -0.75 5.45 -1.30 4.80 -1.70 4.50 6.30 4.50 l7.10 0 15.05 15.05 c8.30 8.30 15 15.35 14.95 15.65 -0.10 0.30 2.45 3.25 5.60 6.55 3.15 3.30 5.75 6.30 5.75 6.70 0 0.40 0.15 0.55 0.30 0.40 0.20 -0.20 0.95 0.10 1.65 0.60 0.70 0.50 1.75 1 2.30 1.10 2.05 0.40 1.60 3.65 -4.20 28.85 -3.05 13.20 -5.55 24.35 -5.55 24.70 0 0.40 -0.30 1.10 -0.60 1.55 -0.90 1.20 -11.05 5.25 -14.60 5.85 -5 0.80 -15.50 0.55 -19.90 -0.55z"/>
  <path d="M47.45 312.85 c-0.40 -0.40 -1.20 -0.85 -1.75 -1.05 -1.35 -0.40 -3.85 -3.10 -5.15 -5.55 -1.40 -2.65 -1.40 -6.80 0 -9.50 1.15 -2.25 33.90 -35.40 36.10 -36.55 0.95 -0.50 1.35 -1.05 1.15 -1.50 -0.25 -0.65 0 -0.70 1.20 -0.45 0.85 0.20 1.50 0.10 1.50 -0.15 0 -0.25 0.70 -0.60 1.50 -0.70 0.90 -0.15 1.50 0 1.50 0.35 0 0.30 1 0.80 2.25 1.15 3.15 0.85 6.95 4.60 7.75 7.60 0.75 2.80 0.45 6.15 -0.75 8.70 -1.05 2.20 -33.35 34.70 -36.40 36.65 -2.45 1.55 -7.80 2.15 -8.90 1z"/>
  <path d="M285 190 c0 -1.75 0.35 -2.40 2.25 -4.45 2.65 -2.85 6.90 -5.05 9.70 -5.05 l2.05 0 0 1.95 c0 1.90 -0.20 2.15 -4.10 5.20 -5.10 3.95 -5.85 4.35 -8.10 4.35 -1.75 0 -1.80 -0.05 -1.80 -2z"/>
  <path d="M252.95 191.15 c-0.05 -0.25 -0.05 -0.60 0 -0.80 0.05 -0.25 -0.15 -0.30 -0.45 -0.10 -0.70 0.45 -2.60 -0.20 -2.25 -0.80 0.20 -0.25 -0.15 -0.45 -0.75 -0.45 -0.60 0 -0.90 -0.20 -0.75 -0.50 0.15 -0.25 -0.15 -0.50 -0.75 -0.50 -0.60 0 -0.90 -0.20 -0.75 -0.50 0.15 -0.25 -0.10 -0.50 -0.60 -0.50 -0.50 0 -1.60 -0.55 -2.40 -1.25 -0.85 -0.70 -2.30 -1.75 -3.25 -2.40 -2.50 -1.60 -6.45 -8.20 -8.35 -13.95 -1.45 -4.30 -1.65 -5.40 -1.65 -10.35 0 -3.05 0.20 -5.55 0.45 -5.55 0.80 0 1 -2.05 0.25 -2.35 -0.85 -0.30 -0.95 -1.15 -0.05 -1.15 0.30 0 1.45 -2.30 2.55 -5.15 2.55 -6.80 5.40 -11.35 10.05 -15.80 2.75 -2.70 3.65 -3.80 3.15 -4.10 -0.50 -0.35 -0.45 -0.45 0.25 -0.45 0.45 0 0.85 0.20 0.85 0.45 0 0.70 6.45 -3.10 6.50 -3.75 0 -0.65 2.30 -1.40 2.95 -0.95 0.60 0.35 3.55 -0.75 3.55 -1.35 0 -0.30 0.45 -0.40 1 -0.25 0.50 0.15 1.05 0 1.15 -0.30 0.10 -0.35 0.65 -0.35 1.80 0.05 1.25 0.45 1.65 0.45 1.85 -0.10 0.15 -0.40 0.75 -0.85 1.35 -1 1.45 -0.35 3.45 0.20 3.20 0.90 -0.15 0.35 0.45 0.55 1.45 0.60 0.95 0 1.70 -0.20 1.70 -0.50 0 -0.30 0.20 -0.25 0.45 0.15 0.25 0.40 0.90 0.60 1.50 0.40 0.60 -0.15 1.05 -0.10 1.05 0.10 0 0.50 4 1.70 4.35 1.35 0.20 -0.15 0.60 0.10 0.95 0.60 0.50 0.65 0.65 0.70 0.70 0.15 0 -0.55 0.20 -0.45 0.75 0.25 0.45 0.55 0.70 0.70 0.75 0.30 0 -0.35 0.55 -0.10 1.30 0.65 0.70 0.75 1.60 1.20 2 1.05 0.40 -0.15 0.70 -0.05 0.70 0.25 0 0.30 0.25 0.35 0.50 0.20 0.30 -0.15 0.50 0.05 0.50 0.45 0 0.45 0.30 0.80 0.65 0.80 0.30 0 1.55 0.90 2.70 1.95 1.25 1.20 2.20 1.75 2.30 1.40 0.15 -0.35 0.50 0.05 0.80 0.80 0.30 0.80 0.90 1.75 1.30 2.15 1.85 1.85 5.20 7.25 6.50 10.45 0.80 1.95 1.75 3.90 2.15 4.35 0.40 0.50 0.60 1.30 0.45 1.90 -0.15 0.55 -0.05 1 0.20 1 0.25 0 0.40 1.05 0.35 2.40 -0.15 2 0 2.35 0.75 2.20 0.55 -0.10 0.85 0.20 0.85 0.80 0 0.85 -0.55 1 -5.85 1.25 -3.95 0.20 -7.60 0.80 -10.90 1.65 -2.75 0.75 -6.10 1.45 -7.50 1.55 -2.30 0.15 -2.40 0.10 -1.55 -0.55 0.80 -0.65 0.90 -1.20 0.65 -3.55 -0.15 -1.50 -0.80 -3.80 -1.45 -5.05 -1.05 -2.15 -4.15 -5.20 -5.30 -5.20 -0.25 0 -0.65 -0.35 -0.80 -0.80 -0.15 -0.40 -0.50 -0.60 -0.80 -0.45 -0.25 0.15 -0.50 0.10 -0.50 -0.10 0 -0.50 -1.05 -0.60 -6.25 -0.75 -4.05 -0.15 -6.50 0.90 -9.55 3.95 -3.35 3.35 -4.85 8.90 -3.65 13.80 0.65 2.70 2.30 5.50 3.05 5.05 0.20 -0.15 0.40 0.05 0.40 0.45 0 0.85 1.70 2.45 2.15 2 0.20 -0.15 0.35 -0.05 0.35 0.30 0 0.35 0.25 0.45 0.50 0.30 0.30 -0.15 0.50 0.10 0.50 0.60 0 0.70 0.10 0.75 0.45 0.25 0.35 -0.55 0.45 -0.55 0.70 0.10 0.20 0.45 0.90 0.80 1.60 0.80 1.05 0 1.25 0.25 1.25 1.35 0 0.75 -0.55 1.90 -1.20 2.60 -1.95 2.10 -7.50 10.55 -9.30 14.20 -1.15 2.35 -1.90 3.35 -2.55 3.35 -0.55 0 -1 -0.15 -1 -0.35z"/>
 </g>
 <g fill="#4f7335">
  <path d="M114.20 370.10 c-0.25 -0.25 -2.35 -0.85 -4.70 -1.30 -8.45 -1.75 -16.10 -6.95 -18.95 -12.80 -0.95 -1.95 -0.95 -2.25 -0.30 -3 0.60 -0.65 0.65 -1.15 0.25 -2.20 -2.15 -5.70 -3 -16.90 -2.05 -28 0.50 -5.65 0.45 -7.05 -0.05 -7.40 -0.50 -0.30 -0.45 -0.40 0.20 -0.40 1.05 0 2.50 -7.05 1.50 -7.40 -0.85 -0.25 -0.75 -1.10 0.15 -1.10 0.85 0 0.65 0.55 3.75 -12.75 l2.30 -10 11.45 -0.15 c8.20 -0.10 11.55 -0.30 11.80 -0.70 0.25 -0.40 2.25 -0.70 5.40 -0.80 l5.05 -0.20 0 1.50 c0 0.85 -0.70 4.45 -1.55 8.10 -1.30 5.40 -1.65 6.45 -2.25 5.95 -0.85 -0.70 -0.75 -0.95 -2.65 7.30 -1.65 7.30 -3.05 14.90 -3.05 16.70 0 1 0.10 1.10 0.80 0.50 0.75 -0.60 0.80 -0.35 0.45 2.90 -0.90 8.90 3.65 13.90 11.35 12.55 7.85 -1.40 12.40 -8.45 16.40 -25.40 2.25 -9.80 2.25 -16.55 0 -23.95 -1.05 -3.40 -1 -4.10 0.25 -3.05 1.15 0.95 0.95 -0.05 -0.70 -3.95 -2 -4.70 -6.05 -11.15 -13.40 -21.20 -10.70 -14.60 -11.25 -15.45 -14 -20.80 -5.25 -10.25 -7.55 -20.20 -7 -30.05 0.45 -7.70 2.60 -18.30 5.35 -26.25 1.20 -3.50 1.20 -3.25 0 -3.25 -0.65 0 -0.90 -0.25 -0.70 -0.75 0.20 -0.55 0.55 -0.60 1.20 -0.25 0.75 0.40 1 0.10 1.75 -1.90 5.80 -15.45 16.85 -27.40 29.25 -31.65 8.05 -2.80 15.15 -4 23.80 -4 3.75 0 6.20 -0.25 6.65 -0.60 0.55 -0.45 0.75 -0.45 0.90 0.05 0.25 0.70 1.65 0.80 1.65 0.10 0 -0.85 1.40 -0.55 2 0.35 0.40 0.65 0.65 0.70 0.80 0.30 0.40 -0.95 1.70 -0.80 1.70 0.25 0 0.50 0.15 0.65 0.40 0.30 0.40 -0.60 3.60 -0.85 3.60 -0.30 0 0.20 0.60 0.45 1.40 0.50 1.90 0.15 7 2.70 9.35 4.75 2.65 2.30 5.10 6.50 6.40 10.95 0.95 3.25 1.05 4.95 1.05 16.15 0 13.90 -0.20 15.70 -4.35 34 l-2.10 9.50 -7.85 0.15 c-7.40 0.10 -7.95 0.05 -8.90 -0.90 -0.95 -0.95 -1.60 -1.05 -8.40 -1 -6.35 0.05 -7.35 0 -7.30 -0.70 0.05 -0.40 0.60 -3.05 1.25 -5.85 1.05 -4.70 1.10 -5.20 0.35 -6.45 -0.45 -0.80 -0.60 -1.65 -0.40 -2.05 0.70 -1.20 2.95 -13.45 3.30 -17.85 0.30 -3.75 0.25 -4.25 -1 -6.75 -1.50 -3.10 -3.85 -4.55 -7.45 -4.50 -4.55 0.05 -10.75 4.30 -13.15 9.10 -0.60 1.20 -1.25 1.90 -1.40 1.60 -0.85 -1.40 -1.75 -0.25 -2.95 3.85 -2.05 6.65 -2.50 9.45 -2.55 14.60 -0.05 6.80 0.95 9.65 5.15 14.25 3.15 3.40 18.30 24.85 23.20 32.75 5.15 8.40 9.65 19.85 11.05 28.35 0.40 2.40 0.85 7 1.05 10.15 0.30 5.60 0.30 5.70 -0.65 4.85 -0.95 -0.85 -0.95 -0.75 -1.25 3.75 -0.35 4.75 -1.60 12.15 -3.10 17.90 -0.75 2.90 -0.75 3.25 -0.05 3.80 0.70 0.50 0.65 0.95 -0.40 4.50 -3.15 10.45 -7.30 19.50 -12.55 27.45 -3.65 5.55 -4.80 6.75 -10.25 10.95 -6.15 4.75 -7.30 4.90 -2.50 0.25 l4.25 -4.10 -3.75 2.80 c-2.05 1.50 -5.30 3.55 -7.25 4.55 -7.15 3.60 -18.05 5.80 -28.65 5.80 -5.40 0 -6.15 0.10 -7 1 -0.50 0.55 -1.10 0.80 -1.40 0.60z"/>
  <path d="M244.75 369.70 c-4.35 -0.70 -9.90 -3.15 -13.20 -5.90 -1.20 -1 -2.25 -1.80 -2.35 -1.80 -0.10 0 -0.05 0.60 0.10 1.30 0.30 1.20 0.25 1.25 -0.75 0.70 -1.80 -0.95 -5.95 -7.80 -7.25 -11.95 -1.95 -6.20 -2.45 -11.20 -2.15 -21 0.35 -11.10 1.05 -15.40 2.65 -16.90 0.65 -0.60 1.20 -1.45 1.20 -1.90 0 -0.45 2.50 -11.75 5.60 -25.10 4.55 -19.75 5.45 -24.45 5 -25.20 -0.85 -1.30 -0.75 -1.95 0.30 -2 0.50 0 0.60 -0.15 0.25 -0.30 -0.90 -0.35 -0.80 -1.15 0.10 -1.15 0.40 0 0.75 -0.35 0.75 -0.75 0 -0.40 -0.20 -0.75 -0.50 -0.75 -0.25 0 -0.50 -0.20 -0.50 -0.50 0 -0.25 0.35 -0.50 0.75 -0.50 0.40 0 0.75 -0.20 0.75 -0.50 0 -0.25 -0.20 -0.50 -0.50 -0.50 -0.25 0 -0.50 -0.20 -0.50 -0.50 0 -0.25 0.35 -0.50 0.75 -0.50 0.40 0 0.75 -0.20 0.75 -0.50 0 -0.25 -0.20 -0.50 -0.50 -0.50 -0.85 0 -0.55 -0.85 0.45 -1.15 1.15 -0.30 1.75 -2.80 0.75 -3.20 -0.40 -0.15 -0.70 -0.60 -0.70 -1 0 -0.55 0.35 -0.70 1.15 -0.50 1 0.25 1 0.25 0.25 -0.35 -1.25 -0.90 -1.10 -1.80 0.25 -1.80 1.05 -0.05 1.10 -0.05 0.15 -0.75 -0.95 -0.75 -0.90 -1.05 2.40 -15.65 3.35 -14.50 6.15 -26 6.65 -26.70 0.10 -0.25 0.60 -0.40 1.05 -0.45 0.55 0 0.60 -0.15 0.25 -0.30 -0.95 -0.35 -0.80 -1.15 0.25 -1.20 0.50 0 0.60 -0.15 0.25 -0.30 -1.10 -0.40 -0.70 -1.30 0.50 -1 1 0.30 1.05 0.25 0.20 -0.35 -1 -0.80 -0.65 -2.30 0.60 -2.30 0.60 0 0.65 -0.10 0.15 -0.45 -0.50 -0.30 -0.45 -0.50 0.35 -0.70 1.05 -0.25 1.50 -1.85 0.55 -1.85 -0.25 0 -0.50 -0.25 -0.50 -0.55 0 -0.30 0.45 -0.45 0.95 -0.30 0.60 0.15 1.10 -0.05 1.25 -0.50 0.20 -0.45 -0.05 -0.85 -0.70 -1 -0.55 -0.15 -0.85 -0.45 -0.70 -0.75 0.15 -0.25 0.55 -0.25 0.95 0.10 0.35 0.30 0.75 0.35 0.90 0.15 0.15 -0.20 1.20 -2.20 2.35 -4.40 2.20 -4.15 7.85 -12.60 9.20 -13.70 0.45 -0.40 0.80 -1 0.80 -1.35 0 -0.40 0.25 -0.70 0.55 -0.70 0.30 0 1.60 -1.05 2.95 -2.30 3.10 -2.90 5 -4.35 9 -6.65 8.10 -4.70 15.55 -6.55 29.20 -7.25 1.70 -0.05 3.10 -0.40 3.20 -0.70 0.25 -0.85 2.10 -0.75 2.10 0.15 0 0.50 0.50 0.75 1.50 0.75 0.85 0 1.50 -0.25 1.50 -0.60 0 -0.45 0.20 -0.40 0.50 0.10 0.30 0.50 0.50 0.55 0.50 0.15 0 -0.35 0.25 -0.65 0.50 -0.65 0.30 0 0.50 0.35 0.50 0.75 0 0.40 0.25 0.75 0.50 0.75 0.30 0 0.50 -0.20 0.50 -0.50 0 -0.25 0.35 -0.50 0.75 -0.50 0.40 0 0.75 0.35 0.75 0.75 0 0.40 0.25 0.75 0.50 0.75 0.30 0 0.50 -0.25 0.50 -0.50 0 -0.55 2.25 -0.45 2.80 0.15 0.20 0.20 1.05 0.35 1.85 0.35 2.25 0 7.75 2.95 10.40 5.60 4.15 4.15 6.35 9.15 7.20 16.45 0.25 2.10 0.15 3.15 -0.40 4 -0.50 0.80 -0.85 3.25 -1.05 7.50 -0.40 9.40 -1.95 18.40 -6.05 35.85 l-1.35 5.60 -14.95 0 -15 0 0.25 -1.60 0.25 -1.65 -1.05 1.25 -1.05 1.25 0.30 -1.75 c0.10 -0.95 1.50 -7.20 3 -13.90 1.55 -6.65 3.05 -13.95 3.40 -16.15 1.05 -7.35 -0.15 -11.15 -4.25 -13 -2.30 -1.05 -6.80 -1.25 -8.45 -0.40 -1.05 0.60 -1.05 0.55 -0.20 -0.40 3.20 -3.65 -4.40 -0.35 -7.90 3.40 -2.80 3 -3.05 4.20 -0.65 2.90 0.85 -0.45 0.65 0.10 -1 3.10 -3.80 7 -5.15 11.65 -14.10 50.20 -2.85 12.45 -3.65 15.10 -4.55 15.80 -0.90 0.70 -1.75 3.55 -4.95 17.45 -3.55 15.20 -3.80 16.55 -2.90 16.30 1.20 -0.30 1.35 -1.50 -2 13.20 -2.60 11.35 -4.10 20.35 -4.10 24.35 0.10 5.95 3.20 10.05 7.95 10.55 7.50 0.70 14.30 -5.60 18.95 -17.50 2.90 -7.35 4.20 -12.10 8.30 -29.90 l3.65 -15.75 -5.20 -0.15 c-4.55 -0.10 -5.15 -0.25 -4.65 -0.85 0.55 -0.65 0.30 -0.75 -1.40 -0.75 -1.15 0 -2.15 -0.20 -2.30 -0.45 -0.15 -0.20 0.90 -5.50 2.35 -11.75 l2.60 -11.30 13.10 0 c12.25 0 15.65 -0.30 15.65 -1.45 0 -0.15 3.50 -0.25 7.75 -0.15 l7.75 0.15 0.05 2.35 c0.05 1.30 0.15 3.15 0.25 4.10 0.25 3.10 -5.55 27.20 -7.80 32.25 -1.60 3.60 -3 8.85 -7 26.35 -2.75 12 -5 21.95 -5 22.15 0 0.20 0.45 -0.15 1 -0.80 0.65 -0.85 0.95 -0.95 0.95 -0.45 0 0.40 -1.65 7.85 -3.65 16.50 l-3.65 15.75 -8.80 0.15 -8.85 0.10 0 -3.90 c0 -2.65 0.25 -4.20 0.75 -4.95 0.60 -0.90 0.75 -2.35 0.65 -7 l-0.15 -5.85 -1.95 3.30 c-3.30 5.65 -9.70 11.55 -16.15 14.85 -5.30 2.70 -9.60 3.65 -16.65 3.80 -3.70 0.10 -7.40 0.05 -8.25 -0.05z"/>
  <path d="M87 322.05 c0 -0.60 0.25 -1.05 0.50 -1.05 0.30 0 0.50 0.30 0.50 0.70 0 0.40 -0.20 0.90 -0.50 1.05 -0.25 0.15 -0.50 -0.15 -0.50 -0.70z"/>
 </g>
 <g fill="#ededed">
  <path d="M128.75 400.40 c-1.10 -0.25 -2.70 -0.70 -3.55 -0.95 -0.85 -0.25 -2 -0.45 -2.60 -0.45 -0.55 0 -1.20 -0.20 -1.35 -0.50 -0.15 -0.25 -0.65 -0.50 -1.05 -0.50 -1.25 0 -11.35 -5.25 -12.95 -6.70 -0.80 -0.80 -2.40 -2.05 -3.50 -2.80 -1.10 -0.80 -2.45 -2.10 -3 -2.95 -0.55 -0.85 -1.15 -1.55 -1.35 -1.55 -0.25 0 -0.40 -0.20 -0.40 -0.50 0 -0.25 -0.40 -0.95 -0.85 -1.45 -1.75 -1.90 -2.15 -2.50 -3.55 -5.40 -0.75 -1.60 -1.65 -3.35 -2 -3.90 -0.95 -1.65 -2.70 -7.30 -3.60 -11.50 -0.25 -1.10 -0.65 -2.85 -0.90 -3.85 -0.45 -1.70 -0.35 -1.95 1.15 -3.40 1.70 -1.65 2.25 -1.50 3 0.95 0.20 0.65 1.85 2.70 3.70 4.55 2.45 2.50 4.30 3.85 7.20 5.20 3.65 1.70 4.85 2.80 3.05 2.80 -1.20 0 0.95 3.55 4.35 7.20 1.55 1.70 3.40 4.20 4.10 5.60 2.60 5.20 8.30 8.10 13.20 6.75 1.05 -0.30 2.50 -0.20 4.50 0.30 3.60 0.90 13.25 1 17.65 0.20 4.60 -0.90 10.10 -2.75 14.75 -5.05 20.15 -9.80 33.15 -28.95 40.20 -59 l0.85 -3.75 2.40 -0.35 c2.15 -0.30 9.55 -3 12.95 -4.75 0.75 -0.35 1.35 -0.50 1.35 -0.30 0 0.25 -0.35 2.45 -0.80 4.90 -0.40 2.50 -0.90 7.75 -1.05 11.80 -0.50 12.05 1.25 20.15 5.95 27.25 l2.55 3.95 0.45 5.50 c0.25 3.05 0.65 7.30 0.85 9.50 0.25 2.20 0.35 4.10 0.25 4.25 -0.15 0.10 -0.65 0 -1.10 -0.30 -1.15 -0.70 -6.50 -11.15 -6.55 -12.80 -0.05 -0.85 -0.45 -1.60 -1.05 -1.90 -0.60 -0.30 -1 -1.05 -1 -1.75 0 -1.40 -1 -3.75 -1.60 -3.75 -0.20 0 -0.40 -0.60 -0.40 -1.40 0 -1.05 -0.35 -1.50 -1.50 -2 -1 -0.45 -1.50 -1.05 -1.50 -1.75 -0.05 -1.40 -1.50 -3.35 -1.85 -2.45 -0.15 0.30 -0.65 0.60 -1.20 0.60 -0.60 0 -0.95 0.35 -0.95 1 0 0.65 -0.35 1 -1 1 -0.55 0 -1 0.25 -1 0.50 0 0.30 -0.35 0.50 -0.75 0.50 -0.40 0 -1.15 0.90 -1.60 1.95 -0.50 1.10 -1.20 2.10 -1.65 2.20 -0.45 0.10 -1.40 1.45 -2.15 3 -0.75 1.50 -1.70 3 -2.10 3.35 -0.40 0.35 -0.75 0.90 -0.75 1.25 0 0.30 -0.45 1 -1 1.50 -0.55 0.50 -1 1.15 -1 1.50 0 0.30 -0.65 1.20 -1.50 2 -0.80 0.80 -1.50 1.65 -1.50 1.95 0 0.55 -7.60 8 -10.95 10.70 -2.75 2.30 -7.95 5.60 -8.70 5.60 -0.35 0 -0.85 0.20 -1.10 0.45 -1.95 1.75 -13.70 6.55 -16.10 6.55 -0.50 0 -1.15 0.20 -1.45 0.45 -0.25 0.25 -1.55 0.60 -2.95 0.80 -4.15 0.55 -23.85 0.70 -26 0.15z"/>
  <path d="M260 400.50 c-0.40 -0.25 -1.30 -0.50 -1.95 -0.50 -1.15 0 -3.35 -0.60 -5.90 -1.55 -0.65 -0.25 -1.75 -0.20 -2.50 0.05 -1.20 0.40 -1.25 0.40 -0.45 -0.15 0.50 -0.30 3.55 -3.25 6.80 -6.45 3.20 -3.25 5.95 -5.90 6.15 -5.90 0.20 0 0.35 0.30 0.35 0.70 0 1.05 1.15 1.30 6.15 1.30 5.70 0 10 -0.70 31.35 -5.05 3.70 -0.75 9.40 -2.65 11.95 -3.95 1.15 -0.55 3.75 -2.60 5.80 -4.55 4.05 -3.90 7.10 -9.05 9.45 -15.95 1.20 -3.65 4.40 -16.40 7.05 -28 0.70 -3.15 2.30 -10 3.60 -15.25 1.55 -6.55 2.10 -9.50 1.70 -9.65 -0.40 -0.15 -0.40 -0.40 -0.15 -0.75 1 -1.25 3.65 -6.45 5.65 -10.95 5.80 -13.15 8.15 -27.65 7 -42.95 -0.35 -4.25 -1.05 -9.35 -1.55 -11.30 l-0.90 -3.65 1.40 0 c1.25 0 1.60 -0.45 3.40 -3.85 3.90 -7.55 5.95 -18.35 5.40 -28.30 -0.40 -6.75 -0.80 -5.65 5.40 -14.60 3.80 -5.55 4.55 -6.45 4 -5.10 -0.20 0.50 -0.10 1.40 0.20 2 0.30 0.60 0.65 1.80 0.85 2.60 0.15 0.85 0.55 2.50 0.80 3.75 1.45 6.70 1.45 22.35 -0.05 30 -0.30 1.50 -0.65 3.55 -0.80 4.50 -0.15 0.95 -0.45 2.20 -0.65 2.75 -0.25 0.55 -0.90 2.60 -1.55 4.50 -1 3.15 -6.65 15.15 -7.45 15.75 -0.30 0.25 -0.65 0.80 -2.65 4.45 -0.55 1 -1.20 2 -1.45 2.30 -0.25 0.25 -0.45 0.85 -0.45 1.35 0 0.50 -0.20 0.90 -0.50 0.90 -0.25 0 -0.50 0.70 -0.50 1.50 0 0.85 -0.25 1.50 -0.55 1.50 -0.35 0 -0.40 1.95 -0.20 6.15 0.55 11.05 0.45 28.45 -0.15 31.60 -1.05 5.60 -1.55 8 -2.10 10.50 -0.30 1.40 -0.70 3.35 -0.85 4.40 -0.15 1 -0.45 2 -0.70 2.15 -0.25 0.15 -0.45 0.90 -0.45 1.70 0 0.80 -0.20 1.95 -0.45 2.60 -0.25 0.65 -0.70 2.40 -1 3.90 -0.35 1.50 -0.80 3.55 -1.05 4.50 -1.15 4.65 -2.40 10 -3.25 14.25 -0.50 2.50 -2.25 9.85 -2.85 12 -0.30 1.10 -0.70 2.70 -0.95 3.50 -0.95 3.75 -3.65 12.05 -4.05 12.45 -0.20 0.30 -0.40 0.85 -0.40 1.30 0 1.05 -2.35 5.75 -3.25 6.50 -0.40 0.35 -0.75 0.90 -0.75 1.20 0 0.75 -7.10 8.30 -7.80 8.30 -0.30 0 -0.95 0.40 -1.40 0.95 -1 1.10 -6.45 3.85 -8.55 4.30 -0.80 0.15 -2.40 0.55 -3.50 0.80 -2.45 0.65 -6.35 1.35 -11 1.95 -3.50 0.50 -7.05 1.05 -12.85 2 -8.05 1.35 -10.70 1.60 -18.15 1.80 -4.85 0.15 -8.30 0 -8.75 -0.30z"/>
  <path d="M231.40 392.15 c-0.95 -0.25 -1.25 -1.15 -0.45 -1.15 0.25 0 0.55 -0.40 0.65 -0.85 0.15 -0.55 0.30 -0.25 0.45 0.75 0.15 0.85 0.25 1.55 0.25 1.55 -0.05 -0.05 -0.45 -0.15 -0.90 -0.30z"/>
  <path d="M20.50 388.50 c-0.65 -0.40 -0.60 -0.50 0.20 -0.50 0.55 0 1.45 -0.40 2 -0.85 0.75 -0.65 0.70 -0.50 -0.15 0.50 -0.70 0.75 -1.25 1.35 -1.25 1.35 -0.05 0 -0.40 -0.25 -0.80 -0.50z"/>
  <path d="M230 386.25 c0 -0.70 0.20 -1.25 0.45 -1.25 0.25 0 0.55 -0.40 0.65 -0.85 0.15 -0.50 0.25 0.05 0.30 1.25 0 1.50 -0.15 2.10 -0.70 2.10 -0.40 0 -0.70 -0.50 -0.70 -1.25z"/>
  <path d="M30.50 378.50 c-0.60 -0.35 -0.55 -0.50 0.25 -0.75 0.55 -0.20 1.45 -0.55 2 -0.85 0.85 -0.45 0.80 -0.30 -0.20 0.80 -0.70 0.70 -1.25 1.30 -1.25 1.30 -0.05 0 -0.40 -0.20 -0.80 -0.50z"/>
  <path d="M40.50 368.50 c-0.60 -0.40 -0.60 -0.50 0.10 -0.75 1.30 -0.50 2.15 -0.10 1.30 0.60 -0.40 0.35 -0.95 0.40 -1.40 0.15z"/>
  <path d="M64.50 344.50 c-0.60 -0.35 -0.55 -0.50 0.25 -0.75 0.55 -0.20 1.45 -0.55 2 -0.85 0.85 -0.45 0.80 -0.30 -0.20 0.80 -0.70 0.70 -1.25 1.30 -1.25 1.30 -0.05 0 -0.40 -0.20 -0.80 -0.50z"/>
  <path d="M71.50 337.50 c-0.60 -0.40 -0.60 -0.50 0.15 -0.80 1.05 -0.40 1.75 0.10 1.05 0.80 -0.25 0.25 -0.75 0.30 -1.20 0z"/>
  <path d="M83.15 326.70 c0.50 -0.60 0.75 -1.40 0.60 -1.85 -0.20 -0.50 0.05 -0.90 0.75 -1.10 1.85 -0.60 1.75 0.20 -0.25 2.15 -1.10 1 -1.55 1.40 -1.10 0.80z"/>
  <path d="M86.40 322.70 c-0.55 -0.50 0.15 -1.70 0.95 -1.70 0.40 0 0.65 0.35 0.55 0.85 -0.15 0.90 -1 1.35 -1.50 0.85z"/>
  <path d="M280.85 322.15 c-0.55 -0.50 -0.40 -3.65 0.15 -3.65 0.30 0 0.50 -0.60 0.50 -1.35 0 -1.50 1.05 -4.75 1.65 -5.20 0.20 -0.15 0.55 -0.95 0.80 -1.75 0.25 -1.05 0.80 -1.55 1.95 -1.90 0.90 -0.25 1.75 -0.30 1.95 -0.15 0.30 0.35 -0.75 4.50 -2.65 10.50 -1.20 3.55 -1.40 3.85 -2.65 3.85 -0.75 0 -1.55 -0.15 -1.70 -0.35z"/>
  <path d="M89 316.30 c0 -0.40 -0.30 -0.85 -0.60 -0.95 -0.40 -0.15 -0.30 -0.30 0.25 -0.30 0.55 -0.05 0.85 0.30 0.85 0.95 0 0.55 -0.10 1 -0.25 1 -0.15 0 -0.25 -0.30 -0.25 -0.70z"/>
  <path d="M47.50 313 c-0.50 -0.35 -0.05 -0.40 1.50 -0.20 2.80 0.40 3.20 0.70 0.95 0.70 -0.95 0 -2.05 -0.25 -2.45 -0.50z"/>
  <path d="M90.15 307.75 c-0.85 -0.95 -0.80 -1.25 0.10 -1.25 0.40 0 0.75 0.45 0.75 1 0 1.15 -0.05 1.20 -0.85 0.25z"/>
  <path d="M142 304 c-0.40 -0.20 -1.75 -0.65 -3 -1 -1.25 -0.30 -2.95 -0.80 -3.80 -1.05 -2.25 -0.65 -3.70 -0.55 -3.70 0.30 0 1.10 -0.90 0.90 -1.55 -0.35 -0.30 -0.65 -1.45 -2.10 -2.55 -3.20 l-2 -2.10 1.30 -5.65 c0.75 -3.15 1.45 -6.10 1.60 -6.55 0.25 -0.80 -0.20 -0.90 -4.25 -0.90 -4.95 0 -6.15 -0.75 -2.05 -1.30 3.40 -0.45 4 -1.50 4 -6.90 0 -2.35 -0.20 -4.40 -0.50 -4.55 -0.25 -0.15 -0.50 -0.80 -0.50 -1.40 0 -0.60 -0.45 -1.85 -1 -2.75 -0.55 -0.90 -1 -2 -1 -2.45 0 -1.40 -3 -6.70 -5.35 -9.40 -1.25 -1.45 -2.25 -2.85 -2.25 -3.10 0 -0.20 -0.25 -0.75 -0.55 -1.15 -0.35 -0.40 7.15 7 16.65 16.45 9.65 9.60 16.95 17.30 16.65 17.40 -0.75 0.25 -0.85 2.25 -0.20 2.95 0.55 0.55 1 4.20 1.35 10.60 0.35 5.85 -0.15 6.60 -4 6.55 -1.40 0 -2.90 -0.20 -3.30 -0.45z"/>
  <path d="M204.60 291.65 c-1.05 -5.55 -2.90 -11 -7.35 -21.15 -3.60 -8.25 -4.70 -11.25 -4.75 -12.85 0 -3.60 1.60 -2.40 15.80 11.95 7.40 7.50 14.30 14.35 15.30 15.20 1.40 1.20 1.70 1.70 1.25 2.10 -1.65 1.35 -15.85 7.75 -17.60 7.95 l-2 0.25 -0.65 -3.45z m16.80 -5.05 l1.60 -0.90 -3.80 -3.65 c-3.80 -3.65 -5.20 -4.35 -3.25 -1.65 0.60 0.90 1.05 2.25 1.05 3.35 0 1.40 0.25 1.90 1 2.10 0.55 0.15 1 0.60 1 0.95 0 0.90 0.40 0.85 2.40 -0.20z"/>
  <path d="M327.70 258.75 c0.80 -3.60 1.10 -4.45 1.35 -3.55 0.30 1.10 0.30 2.60 0.05 6.95 -0.10 1.05 -0.35 1.35 -1.25 1.35 l-1.20 0 1.05 -4.75z"/>
  <path d="M232.40 260.65 c-2.30 -2.35 -2.45 -3.10 -0.40 -1.65 0.85 0.60 1.80 0.95 2.15 0.85 0.45 -0.20 0.45 -0.30 0 -0.30 -0.90 -0.05 -0.80 -1.05 0.10 -1.05 0.80 0 0.90 0.95 0.35 2.90 -0.35 1.10 -0.40 1.10 -2.20 -0.75z"/>
  <path d="M77.75 258.50 c-0.15 -0.25 0.05 -0.50 0.45 -0.50 0.40 0 0.90 0.25 1.05 0.50 0.15 0.30 -0.05 0.50 -0.45 0.50 -0.40 0 -0.90 -0.20 -1.05 -0.50z"/>
  <path d="M80.50 258.05 c0 -0.25 0.70 -0.55 1.50 -0.65 1 -0.15 1.50 0 1.50 0.45 0 0.40 -0.60 0.65 -1.50 0.65 -0.80 0 -1.50 -0.20 -1.50 -0.45z"/>
  <path d="M217.65 246.10 c-7 -7.05 -12.15 -12.65 -12.15 -13.15 0 -0.60 0.50 -1.05 1.40 -1.25 3.55 -0.85 8.65 -3.95 11.95 -7.25 6 -6 9.15 -13.75 10.05 -24.70 0.75 -9.40 -0.75 -17.65 -4.55 -24.95 -2.45 -4.75 -9.05 -11.80 -13.20 -14.10 -2.20 -1.20 -2.65 -1.70 -3.10 -3.45 -0.75 -2.95 -4.15 -7.95 -6.65 -9.80 -2.50 -1.80 -7.40 -4.20 -9.85 -4.80 -2.35 -0.60 -2.55 -1.55 -0.30 -1.55 0.95 0 1.75 0.15 1.75 0.35 0 0.20 1.40 0.45 3.10 0.50 1.70 0.05 3.35 0.25 3.60 0.45 0.30 0.15 1.55 0.45 2.80 0.65 3.20 0.55 5.10 0.95 6.25 1.45 0.55 0.20 1.65 0.65 2.40 0.95 0.75 0.30 1.80 0.55 2.25 0.55 0.45 0 1.40 0.45 2.10 1 0.70 0.55 1.55 1 1.90 1 0.55 0 3.30 1.70 6.05 3.75 0.40 0.25 2.15 1.85 3.90 3.55 l3.15 3.05 0 -2.45 c0 -1.75 0.20 -2.40 0.70 -2.40 0.40 0 0.80 -0.40 0.95 -0.85 0.10 -0.50 0.20 1.60 0.20 4.65 0.05 5 0.20 6.05 1.80 10.65 2.80 8.10 8.25 15.65 13.70 19.15 2.30 1.45 2.60 1.90 1.35 1.90 -0.40 0 -0.60 -0.20 -0.45 -0.50 0.15 -0.25 -0.15 -0.50 -0.75 -0.50 -0.60 0 -0.90 -0.20 -0.75 -0.50 0.15 -0.25 -0.10 -0.50 -0.65 -0.50 -0.50 0 -1.55 -0.55 -2.30 -1.25 -0.75 -0.65 -1.75 -1.45 -2.25 -1.70 -0.80 -0.45 -0.85 -0.35 -0.35 1.25 0.30 0.90 0.70 1.70 0.90 1.70 0.25 0 0.40 1.60 0.40 3.50 0 2 0.20 3.50 0.50 3.50 0.30 0 0.50 0.90 0.50 2 0 1.10 0.25 2 0.50 2 0.30 0 0.50 0.45 0.50 1 0 0.55 0.25 1 0.50 1 0.30 0 0.50 0.45 0.50 1 0 1.10 0.25 1.15 1.75 0.50 0.55 -0.25 0.70 -0.45 0.40 -0.45 -1 -0.05 -0.75 -1.05 0.25 -1.10 0.50 0 0.60 -0.15 0.25 -0.30 -0.95 -0.35 -0.80 -1.15 0.25 -1.15 0.60 0 0.70 -0.10 0.20 -0.40 -0.85 -0.55 -0.25 -2.10 0.85 -2.10 0.60 0 0.65 -0.10 0.15 -0.45 -0.55 -0.30 -0.45 -0.50 0.35 -0.70 1 -0.25 1 -0.20 0.25 1.60 -1.05 2.40 -3.30 9.75 -4.65 15.05 -1.05 4.20 -7.55 32.40 -7.55 32.75 0 0.15 -0.35 0.10 -0.75 -0.05 -0.55 -0.25 -0.75 -1.15 -0.75 -3.75 0 -3.30 -0.05 -3.45 -1.20 -3.45 -0.70 0 -1.40 0.25 -1.55 0.50 -0.15 0.30 -1.40 0.50 -2.80 0.50 -1.35 0 -2.45 0.25 -2.45 0.50 0 0.30 -0.20 0.50 -0.50 0.50 -0.25 0 -0.95 0.45 -1.50 1 -0.55 0.55 -1.45 1 -1.95 1 -0.55 0 -1.15 0.25 -1.30 0.50 -0.15 0.30 -0.75 0.50 -1.30 0.50 -0.55 0 -1.10 0.35 -1.30 0.80 -0.15 0.40 -0.80 1 -1.45 1.25 -0.65 0.20 -1.20 0.60 -1.20 0.80 0 0.25 2.60 3.10 5.75 6.40 3.15 3.30 5.75 6.25 5.75 6.60 0 0.35 -0.05 0.60 -0.10 0.60 -0.10 -0.05 -5.60 -5.60 -12.25 -12.35z"/>
  <path d="M234.65 257.20 c-0.85 -0.85 -0.80 -1.20 0.10 -1.20 0.40 0 0.75 -0.20 0.75 -0.50 0 -0.25 -0.20 -0.50 -0.50 -0.50 -0.25 0 -0.50 -0.20 -0.50 -0.50 0 -0.25 0.35 -0.50 0.75 -0.50 0.40 0 0.75 -0.20 0.75 -0.50 0 -0.25 -0.20 -0.50 -0.50 -0.50 -0.25 0 -0.50 -0.20 -0.50 -0.50 0 -0.25 0.35 -0.50 0.75 -0.50 0.90 0 0.90 0.55 0.10 3.55 -0.50 1.90 -0.70 2.20 -1.20 1.65z"/>
  <path d="M312.50 252.30 c0 -0.35 11.20 -11.30 11.55 -11.30 0.15 0 1 0.75 1.85 1.65 1.25 1.25 1.80 2.50 2.35 5.15 0.40 1.90 0.75 3.75 0.75 4.10 0 0.45 -2 0.60 -8.25 0.60 -4.55 0 -8.25 -0.10 -8.25 -0.20z"/>
  <path d="M236.65 248.65 c-0.95 -0.35 -0.75 -1.65 0.25 -1.70 0.50 0 0.60 -0.15 0.25 -0.30 -0.90 -0.35 -0.80 -1.65 0.10 -1.65 0.80 0 0.90 1 0.35 2.80 -0.20 0.55 -0.65 0.95 -0.95 0.85z"/>
  <path d="M109.20 243.05 c0.20 -0.25 0 -0.60 -0.30 -0.70 -0.40 -0.20 -0.35 -0.30 0.15 -0.30 0.45 -0.05 0.95 0.30 1.15 0.70 0.15 0.45 0 0.75 -0.50 0.75 -0.40 0 -0.65 -0.20 -0.50 -0.45z"/>
  <path d="M105 231.50 c0 -0.25 0.20 -0.50 0.45 -0.50 0.25 0 0.60 -0.50 0.70 -1.10 0.15 -0.85 0.25 -0.70 0.30 0.50 0.05 1.10 -0.15 1.60 -0.70 1.60 -0.40 0 -0.75 -0.20 -0.75 -0.50z"/>
  <path d="M105.40 227.15 c-1.10 -0.25 -1.25 -2.65 -0.20 -2.65 0.40 0 0.80 -0.50 0.90 -1.10 0.10 -0.65 0.20 0.05 0.25 1.50 0 1.40 0 2.55 -0.05 2.55 0 -0.05 -0.45 -0.15 -0.90 -0.30z"/>
  <path d="M105.65 221.20 c-0.85 -0.85 -0.80 -1.20 0.10 -1.20 0.40 0 0.75 -0.25 0.75 -0.60 0 -0.30 0.10 -0.45 0.25 -0.35 0.10 0.15 0.05 0.85 -0.15 1.55 -0.30 1.05 -0.45 1.15 -0.95 0.60z"/>
  <path d="M108.05 212.65 c-0.75 -0.80 -0.50 -1.30 0.60 -1.05 0.45 0.10 0.60 0.45 0.40 0.95 -0.25 0.75 -0.40 0.75 -1 0.10z"/>
  <path d="M109.05 209.65 c-0.75 -0.80 -0.50 -1.30 0.60 -1.05 0.45 0.10 0.60 0.45 0.40 0.95 -0.25 0.75 -0.40 0.75 -1 0.10z"/>
  <path d="M110.15 207.65 c-0.90 -0.35 -0.80 -1.15 0.10 -1.15 0.40 0 0.75 0.35 0.75 0.75 0 0.40 -0.05 0.75 -0.10 0.70 -0.10 0 -0.45 -0.15 -0.75 -0.30z"/>
  <path d="M92.90 200.65 c0.60 -0.10 1.60 -0.10 2.25 0 0.60 0.10 0.10 0.20 -1.15 0.20 -1.25 0 -1.75 -0.10 -1.10 -0.20z"/>
  <path d="M251.15 193.15 c-0.90 -0.35 -0.80 -1.15 0.10 -1.15 0.40 0 0.75 0.35 0.75 0.75 0 0.40 -0.05 0.75 -0.10 0.70 -0.10 0 -0.45 -0.15 -0.75 -0.30z"/>
  <path d="M251.25 190.30 c-0.85 -0.35 -1.25 -0.75 -0.90 -0.95 0.30 -0.20 1.10 0.10 1.70 0.65 1.40 1.15 1.25 1.20 -0.80 0.30z"/>
  <path d="M111.50 179 c-1.25 -0.20 -1.85 -0.40 -1.35 -0.40 0.45 -0.05 0.85 -0.30 0.85 -0.60 0 -0.80 3.85 -0.60 4.70 0.25 0.85 0.90 2.65 1 2.90 0.20 0.25 -0.70 2.40 -0.15 2.40 0.60 0 0.50 -6.05 0.50 -9.50 -0.05z"/>
  <path d="M95.75 177 c1.35 -0.60 1.75 -0.60 1.75 0 0 0.30 -0.60 0.50 -1.35 0.45 -1.25 0 -1.30 -0.05 -0.40 -0.45z"/>
  <path d="M82.75 176 c-1.10 -0.20 -1.50 -0.40 -0.90 -0.45 0.60 0 1.20 -0.35 1.35 -0.65 0.15 -0.50 0.40 -0.45 0.90 0.15 0.35 0.45 1 0.90 1.40 1.10 0.65 0.25 0.65 0.25 0 0.25 -0.40 -0.05 -1.65 -0.20 -2.75 -0.40z"/>
  <path d="M74.25 175 c0.15 -0.25 0.65 -0.50 1.05 -0.50 0.40 0 0.70 0.25 0.70 0.50 0 0.30 -0.45 0.50 -1.05 0.50 -0.55 0 -0.85 -0.20 -0.70 -0.50z"/>
  <path d="M345 174.55 c-2.45 -0.60 -4.40 -2 -4.75 -3.40 -0.55 -2.35 -3.25 -6.60 -5.70 -9.05 -2.50 -2.50 -7.25 -5.10 -11.15 -6.15 -1.35 -0.40 -2.40 -0.95 -2.40 -1.30 0 -0.65 1.35 -0.65 3 0 0.40 0.15 1.65 0.40 2.75 0.55 6.95 0.95 10.70 1.70 14.35 3 3.80 1.35 9.90 4.30 9.90 4.85 0 0.90 0.75 0.40 1.60 -1.05 0.55 -0.95 1.25 -1.50 1.95 -1.50 l1.05 0 -1.10 1.90 c-0.65 1 -1.50 2.55 -2 3.35 -2.65 4.65 -5.60 9.25 -5.90 9.20 -0.20 -0.05 -0.90 -0.20 -1.60 -0.40z"/>
  <path d="M259.80 167.05 c-0.50 -0.55 -0.80 -1.30 -0.65 -1.65 0.20 -0.50 0.30 -0.50 0.30 0.05 0.05 0.40 0.40 1.15 0.90 1.65 0.45 0.50 0.70 0.90 0.55 0.90 -0.15 0 -0.65 -0.45 -1.10 -0.95z"/>
  <path d="M356.15 158.20 c-0.85 -0.85 -0.80 -1.20 0.05 -1.20 0.95 0 1.35 0.65 0.90 1.35 -0.25 0.35 -0.55 0.35 -0.95 -0.15z"/>
  <path d="M356.50 156.50 c-0.60 -0.40 -0.55 -0.50 0.40 -0.50 1.20 0 1.50 -0.75 0.50 -1.15 -0.40 -0.15 -0.30 -0.30 0.25 -0.30 0.90 -0.05 1.05 0.35 0.55 1.65 -0.35 0.90 -0.65 0.95 -1.70 0.30z"/>
  <path d="M318.85 154.65 c-0.60 -0.55 -0.40 -1.15 0.40 -1.15 0.40 0 0.75 0.35 0.75 0.75 0 0.80 -0.60 1 -1.15 0.40z"/>
  <path d="M315.50 153.65 c0 -0.75 0.10 -0.80 0.50 -0.15 0.30 0.50 0.50 0.55 0.50 0.15 0 -0.35 0.25 -0.65 0.50 -0.65 0.30 0 0.50 0.35 0.50 0.75 0 0.40 -0.45 0.75 -1 0.75 -0.60 0 -1 -0.35 -1 -0.85z"/>
  <path d="M310.30 153.25 c0.20 -0.40 0.75 -0.75 1.25 -0.75 0.50 0 0.95 0.35 0.95 0.75 0 0.45 -0.45 0.75 -1.25 0.75 -0.90 0 -1.15 -0.20 -0.95 -0.75z"/>
  <path d="M231.65 151.15 c-0.90 -0.35 -0.80 -1.15 0.10 -1.15 0.40 0 0.75 0.35 0.75 0.75 0 0.40 -0.05 0.75 -0.10 0.70 -0.10 0 -0.45 -0.15 -0.75 -0.30z"/>
  <path d="M307.45 150.90 c-0.30 -1.05 -0.25 -1.90 0.10 -1.90 0.25 0 0.45 0.45 0.45 1 0 0.80 -0.35 1.40 -0.55 0.90z"/>
  <path d="M306.85 147.85 c-0.55 -1.45 -0.45 -2.15 0.20 -1.50 0.30 0.30 0.45 0.95 0.35 1.45 -0.15 0.90 -0.20 0.90 -0.55 0.05z"/>
  <path d="M272 142.50 c-1.20 -0.40 -1.15 -0.40 0.40 -0.45 0.85 -0.05 1.60 0.20 1.60 0.45 0 0.55 -0.25 0.55 -2 0z"/>
  <path d="M187.85 141.65 c-0.60 -0.55 -0.40 -1.15 0.40 -1.15 0.40 0 0.75 0.35 0.75 0.75 0 0.80 -0.60 1 -1.15 0.40z"/>
  <path d="M184.35 140.75 c0.30 -0.90 1.70 -0.80 2.05 0.15 0.10 0.35 -0.30 0.60 -1.10 0.60 -0.95 0 -1.20 -0.20 -0.95 -0.75z"/>
  <path d="M296.60 129.90 c-0.70 -0.70 -0.80 -2.10 -0.15 -1.70 0.35 0.25 1.15 2.30 0.85 2.30 -0.05 0 -0.35 -0.25 -0.70 -0.60z"/>
  <path d="M255 121.05 c0 -0.55 2.50 -1.20 2.90 -0.80 0.40 0.40 -0.95 1.25 -2 1.25 -0.50 0 -0.90 -0.20 -0.90 -0.45z"/>
  <path d="M261.50 119 c0 -0.35 0.40 -0.50 1 -0.35 0.50 0.15 1.05 0 1.15 -0.30 0.10 -0.35 0.60 -0.35 1.65 0.05 1.15 0.40 1.25 0.55 0.40 0.55 -0.60 0.05 -1.80 0.20 -2.65 0.35 -1.05 0.25 -1.55 0.15 -1.55 -0.30z"/>
  <path d="M267.35 118.15 c0.50 -1.25 4.30 -1.25 4.80 0 0.15 0.40 -0.65 0.60 -2.40 0.60 -1.80 0 -2.55 -0.20 -2.40 -0.60z"/>
  <path d="M122.60 115.70 c0.75 -0.75 1.50 -1.30 1.65 -1.15 0.10 0.15 -0.50 0.80 -1.40 1.45 l-1.60 1.15 1.35 -1.45z"/>
  <path d="M377.80 106.75 c-0.40 -1.10 -0.15 -1.40 0.95 -1.15 0.70 0.15 0.70 0.25 0.10 1.10 -0.65 0.90 -0.70 0.90 -1.05 0.05z"/>
  <path d="M106.70 98.65 c0.50 -0.60 0.75 -1.35 0.55 -1.60 -0.15 -0.30 0.05 -0.55 0.45 -0.55 1.15 0 0.95 0.65 -0.55 2.05 -1.15 1 -1.25 1 -0.45 0.10z"/>
  <path d="M160.90 98.15 c0.60 -0.10 1.60 -0.10 2.25 0 0.60 0.10 0.10 0.20 -1.15 0.20 -1.25 0 -1.75 -0.10 -1.10 -0.20z"/>
  <path d="M405.55 95.15 c0 -0.20 0.20 -0.85 0.45 -1.40 0.40 -0.95 0.45 -0.95 0.45 0.10 0.05 0.60 -0.15 1.25 -0.45 1.40 -0.25 0.15 -0.50 0.15 -0.45 -0.10z"/>
  <path d="M119.60 87.70 c-0.50 -0.60 -0.50 -0.70 0.10 -0.70 0.85 0 1.50 0.80 0.95 1.15 -0.25 0.15 -0.70 -0.05 -1.05 -0.45z"/>
  <path d="M126.50 83.75 c0 -0.40 0.30 -0.75 0.70 -0.75 1.10 0 1.40 0.85 0.50 1.20 -1.10 0.45 -1.20 0.40 -1.20 -0.45z"/>
  <path d="M131.80 81.25 c-0.20 -0.50 0.30 -0.90 1.75 -1.25 2.15 -0.60 3.85 -0.10 2.05 0.55 -0.60 0.25 -1.30 0.45 -1.50 0.50 -0.20 0 -0.70 0.25 -1.20 0.50 -0.55 0.30 -0.90 0.20 -1.10 -0.30z"/>
  <path d="M141.30 77.75 c0.20 -0.40 0.45 -0.75 0.65 -0.75 0.15 0 0.80 -0.15 1.45 -0.30 1.55 -0.45 1.40 0.40 -0.25 1.20 -1.75 0.80 -2.20 0.75 -1.85 -0.15z"/>
  <path d="M384.10 78.20 c0.45 -0.15 0.95 -0.75 1.10 -1.35 0.20 -0.90 0.20 -0.90 0.15 0.15 -0.05 0.85 -0.40 1.25 -1.10 1.35 -0.70 0.05 -0.75 0 -0.15 -0.15z"/>
  <path d="M145 76.80 c0 -0.85 1.35 -1.45 1.75 -0.80 0.20 0.30 0.15 0.75 0 1 -0.45 0.75 -1.75 0.60 -1.75 -0.20z"/>
  <path d="M190 77 c-0.60 -0.35 -0.60 -0.60 -0.15 -1.05 0.50 -0.50 0.70 -0.45 0.95 0.25 0.40 1.10 0.10 1.35 -0.80 0.80z"/>
  <path d="M147.85 76.15 c0.30 -0.75 1.45 -0.90 1.85 -0.20 0.15 0.25 -0.25 0.55 -0.90 0.65 -0.85 0.20 -1.15 0.05 -0.95 -0.45z"/>
  <path d="M153 75 c0 -0.25 0.30 -0.50 0.70 -0.50 0.40 0 0.90 0.25 1.05 0.50 0.15 0.30 -0.15 0.50 -0.70 0.50 -0.60 0 -1.05 -0.20 -1.05 -0.50z"/>
  <path d="M181.50 75 c0.95 -0.65 1.50 -0.65 1.50 0 0 0.30 -0.50 0.50 -1.10 0.50 -0.95 0 -1 -0.10 -0.40 -0.50z"/>
  <path d="M155.50 74.50 c0 -0.65 1.50 -0.65 2.50 0 0.55 0.35 0.35 0.50 -0.85 0.50 -0.90 0 -1.65 -0.20 -1.65 -0.50z"/>
  <path d="M160 74 c0 -0.65 1.50 -0.65 2.50 0 0.55 0.35 0.35 0.50 -0.85 0.50 -0.90 0 -1.65 -0.20 -1.65 -0.50z"/>
  <path d="M173.25 74.15 c0.55 -0.15 1.25 -0.45 1.55 -0.70 0.30 -0.25 0.70 -0.30 0.85 -0.10 0.80 0.75 0.25 1.15 -1.50 1.10 -1.10 -0.05 -1.50 -0.15 -0.90 -0.30z"/>
  <path d="M228.15 66.75 c-0.45 -0.50 -0.30 -0.80 0.85 -1.25 2.10 -0.85 2.80 -0.40 1.15 0.80 -1.15 0.85 -1.55 0.95 -2 0.45z"/>
  <path d="M232.20 64.10 c0.05 -0.95 0.75 -1.60 1.70 -1.60 0.95 0 0.70 0.65 -0.60 1.60 -1.10 0.80 -1.20 0.80 -1.10 0z"/>
  <path d="M386.15 58.15 c-0.90 -0.35 -0.80 -1.15 0.10 -1.15 0.40 0 0.75 0.35 0.75 0.75 0 0.40 -0.05 0.75 -0.10 0.70 -0.10 0 -0.45 -0.15 -0.75 -0.30z"/>
  <path d="M243 56.80 c0 -0.45 0.35 -0.80 0.80 -0.80 0.85 0 0.70 1.10 -0.20 1.40 -0.35 0.10 -0.60 -0.15 -0.60 -0.60z"/>
  <path d="M385.50 53.75 c0 -0.40 0.20 -0.75 0.45 -0.75 0.25 0 0.60 -0.50 0.70 -1.10 0.10 -0.65 0.20 -0.30 0.20 0.75 0 1.20 -0.25 1.85 -0.70 1.85 -0.35 0 -0.65 -0.35 -0.65 -0.75z"/>
  <path d="M248.05 53.55 c-0.55 -0.35 -0.45 -0.50 0.40 -0.80 1.25 -0.40 1.80 -0.10 1.30 0.70 -0.40 0.65 -0.75 0.70 -1.70 0.10z"/>
  <path d="M254.70 49.95 c0 -0.60 0.35 -0.95 0.90 -0.95 0.50 0 0.90 0.15 0.90 0.40 0 0.20 -0.40 0.60 -0.90 0.90 -0.75 0.50 -0.90 0.40 -0.90 -0.35z"/>
  <path d="M260.30 46.55 c-0.30 -0.50 2.15 -1.30 2.60 -0.80 0.35 0.35 0.10 0.55 -1.25 0.95 -0.60 0.20 -1.20 0.15 -1.35 -0.15z"/>
  <path d="M385.30 45.60 c0.30 -0.20 0.70 -0.70 0.85 -1.10 0.20 -0.50 0.30 -0.40 0.30 0.40 0.05 0.75 -0.25 1.10 -0.80 1.10 -0.55 0 -0.70 -0.15 -0.35 -0.40z"/>
  <path d="M267.40 43.65 c0.30 -0.10 0.60 -0.55 0.60 -0.95 0 -0.75 1.25 -0.95 1.70 -0.25 0.25 0.40 -1.80 1.60 -2.60 1.50 -0.20 0 -0.05 -0.15 0.30 -0.30z"/>
  <path d="M355.75 40.50 c0.85 -0.20 1.95 -0.40 2.50 -0.40 0.80 0 0.75 0.10 -0.25 0.40 -0.70 0.20 -1.80 0.40 -2.50 0.40 -1.10 0 -1.10 -0.05 0.25 -0.40z"/>
  <path d="M281.80 36.20 c-0.20 -0.45 0.05 -0.70 0.70 -0.70 1.15 0 1.35 0.75 0.30 1.15 -0.40 0.15 -0.85 -0.05 -1 -0.45z"/>
  <path d="M286.50 34.25 c0 -0.85 5.35 -2.90 6.45 -2.50 0.70 0.30 0.70 0.40 -0.10 0.85 -0.55 0.25 -1.30 0.55 -1.75 0.65 -0.50 0.10 -0.90 0.20 -0.95 0.25 -0.10 0.10 -0.30 0.15 -0.50 0.20 -0.25 0.05 -0.60 0.20 -0.90 0.35 -1.35 0.80 -2.25 0.90 -2.25 0.20z"/>
  <path d="M296.50 30.05 c0 -0.55 2.40 -1.20 3 -0.80 0.30 0.20 0.50 0.05 0.50 -0.20 0 -0.30 0.35 -0.55 0.75 -0.55 1.60 0 0.65 0.90 -1.45 1.45 -2.70 0.65 -2.80 0.65 -2.80 0.10z"/>
  <path d="M306.85 27.15 c-0.50 -0.45 -0.40 -1.15 0.10 -1.15 0.25 0 1.10 -0.25 1.90 -0.55 1.85 -0.75 4.55 -1 4.90 -0.50 0.20 0.40 -2.50 1.30 -3.45 1.10 -0.20 -0.05 -0.70 0.15 -1 0.45 -0.35 0.25 -0.80 0.35 -0.95 0.15 -0.20 -0.15 -0.35 -0.05 -0.35 0.25 0 0.65 -0.65 0.80 -1.15 0.25z"/>
  <path d="M316.35 23.70 c0.15 -0.45 0.65 -0.70 1.20 -0.55 0.50 0.15 1 0 1.10 -0.30 0.10 -0.30 1 -0.55 2 -0.55 1 0 1.85 -0.20 1.85 -0.40 0 -0.55 1.85 -0.50 2.20 0.05 0.25 0.40 -1.75 1.10 -3.70 1.30 -0.40 0.05 -1.10 0.25 -1.50 0.40 -0.40 0.15 -1.35 0.40 -2.10 0.55 -1.10 0.25 -1.30 0.15 -1.05 -0.50z"/>
  <path d="M326.85 21.15 c0.15 -0.40 0.70 -0.65 1.20 -0.50 0.55 0.15 0.95 0.05 0.95 -0.20 0 -0.55 1.35 -0.60 1.70 -0.05 0.15 0.25 -0.70 0.65 -1.90 0.95 -1.85 0.40 -2.15 0.35 -1.95 -0.20z"/>
  <path d="M331.50 20.05 c0 -0.60 2.80 -1.25 3.55 -0.75 0.30 0.15 0.75 0.05 0.95 -0.30 0.60 -0.95 2.35 -1.10 2.65 -0.30 0.20 0.50 -0.25 0.80 -1.30 1 -3.55 0.65 -5.85 0.80 -5.85 0.35z"/>
  <path d="M400.25 19.80 c-0.55 -0.40 -1.30 -0.55 -1.70 -0.40 -0.65 0.25 -0.70 0.20 -0.05 -0.50 0.55 -0.60 1 -0.65 1.85 -0.25 0.65 0.30 1.15 0.70 1.15 0.95 0 0.25 0.25 0.30 0.50 0.15 0.30 -0.15 0.50 -0.05 0.50 0.20 0 0.75 -1.15 0.70 -2.25 -0.15z"/>
  <path d="M340 18.45 c0.30 -0.55 0.85 -0.75 1.50 -0.60 1.45 0.40 1.25 1 -0.45 1.25 -1.30 0.20 -1.40 0.10 -1.05 -0.65z"/>
  <path d="M396 18.50 c0 -0.25 0.35 -0.50 0.75 -0.50 0.40 0 0.75 0.25 0.75 0.50 0 0.30 -0.35 0.50 -0.75 0.50 -0.40 0 -0.75 -0.20 -0.75 -0.50z"/>
  <path d="M343.50 18 c0 -0.25 0.30 -0.50 0.70 -0.50 0.40 0 0.90 0.25 1.05 0.50 0.15 0.30 -0.15 0.50 -0.70 0.50 -0.60 0 -1.05 -0.20 -1.05 -0.50z"/>
  <path d="M346.50 17.50 c0 -0.65 1.50 -0.65 2.50 0 0.55 0.35 0.35 0.50 -0.85 0.50 -0.90 0 -1.65 -0.20 -1.65 -0.50z"/>
  <path d="M350.50 17 c0 -0.55 0.70 -0.55 2.50 0 1.10 0.35 1.05 0.40 -0.60 0.45 -1.05 0.05 -1.90 -0.15 -1.90 -0.45z"/>
  <path d="M385.05 17.30 c0.60 -0.50 2.95 -0.75 2.95 -0.30 0 0.25 -0.70 0.50 -1.60 0.50 -0.85 0 -1.45 -0.10 -1.35 -0.20z"/>
  <path d="M355 16.55 c0 -0.85 0.70 -0.90 2.75 -0.25 l2 0.60 -2.35 0.05 c-1.35 0.05 -2.40 -0.15 -2.40 -0.40z"/>
  <path d="M381.70 16.20 c0.45 -0.40 1 -0.60 1.30 -0.45 0.95 0.60 0.50 1.25 -0.80 1.25 -1.15 0 -1.20 -0.05 -0.50 -0.80z"/>
 </g>
 <g fill="#cccccc">
  <path d="M275.35 372.55 l12.40 -12.50 0.15 4 0.15 4 7.30 -0.15 7.35 -0.15 3.25 -14.50 3.30 -14.50 10.35 -10.50 c5.65 -5.75 11.20 -11.55 12.25 -12.85 1.05 -1.30 2.05 -2.35 2.30 -2.35 0.20 -0.05 0.35 0.75 0.35 1.70 0 0.95 -0.20 1.75 -0.40 1.75 -0.25 0 -0.70 0.55 -1 1.25 -0.35 0.75 -1 1.25 -1.60 1.25 -0.75 0 -1 0.35 -1 1.20 0 0.70 -0.20 1.40 -0.50 1.55 -0.25 0.15 -0.50 0.80 -0.50 1.35 0 0.60 -0.20 1.75 -0.50 2.60 -0.25 0.85 -1.05 4.60 -1.80 8.30 -2.10 10.80 -2.15 11 -3.45 16.25 -1.65 6.50 -2.15 7.85 -4.20 11.75 -2.70 5.20 -4.40 7.35 -7.20 9.20 -3.65 2.40 -11.40 5.30 -14.20 5.30 -0.80 0 -2.15 0.20 -2.95 0.45 -0.80 0.25 -2.80 0.70 -4.45 1.05 -1.65 0.30 -4.45 1 -6.25 1.50 -4.45 1.30 -7.65 1.90 -11.60 2.30 -1.90 0.15 -3.60 0.60 -3.95 1 -0.30 0.40 -1 0.70 -1.50 0.70 -0.55 0 -0.95 0.35 -0.95 0.75 0 0.55 -0.55 0.75 -1.80 0.75 -1.75 0 -1.65 -0.15 10.65 -12.45z"/>
  <path d="M149.90 367.50 c13.50 -13.35 16.70 -16.80 19.40 -20.85 5.05 -7.65 9.60 -17.60 12.50 -27.40 0.50 -1.65 0.95 -3.05 1 -3.15 0.05 -0.10 1 0.30 2.15 0.85 3.20 1.65 10.10 3.05 15.05 3.05 4.15 0 4.50 0.05 4.50 1 0 0.85 -0.35 1 -2.65 1 l-2.65 0 -1.20 5.15 c-3.55 15.55 -11.70 31.15 -20.85 39.85 -9.85 9.35 -20.20 14.05 -32.65 14.80 -3.10 0.20 -5.70 0.60 -6.35 1 -0.60 0.40 -1.85 0.70 -2.75 0.70 -1.55 -0.05 -0.85 -0.85 14.50 -16z"/>
  <path d="M111.55 371.45 c-0.30 -2 -0.50 -3.70 -0.35 -3.80 0.40 -0.40 4.55 0.65 4.45 1.15 -0.45 1.90 -2.50 6.20 -2.95 6.20 -0.30 0 -0.80 -1.60 -1.15 -3.55z"/>
  <path d="M258.25 341.70 c-5.05 -2.60 -6.30 -8.25 -4.50 -20.65 0.65 -4.35 4.65 -23.55 5.55 -26.60 0.10 -0.45 2.30 -2.20 4.85 -3.85 7 -4.60 13.30 -9.05 16.95 -11.95 4 -3.20 5.40 -3.45 5.40 -0.95 0 0.95 -0.20 1.90 -0.50 2.05 -0.25 0.15 -0.50 0.90 -0.50 1.60 0 0.65 -0.40 1.85 -0.90 2.55 -0.50 0.75 -1.25 2.35 -1.60 3.60 -0.40 1.25 -1.20 3.20 -1.85 4.35 -0.60 1.15 -1.70 3.60 -2.45 5.50 -0.70 1.85 -1.65 4.30 -2.05 5.40 -0.40 1.10 -1.10 3.20 -1.45 4.65 -0.40 1.40 -1.05 3.90 -1.50 5.50 -2.20 8.05 -3.15 15.50 -2.55 20.45 l0.45 3.60 2.55 -0.25 2.60 -0.30 -2.25 2.05 c-1.25 1.10 -3.45 2.50 -4.90 3.05 -3.30 1.25 -9.15 1.35 -11.35 0.20z"/>
  <path d="M126.75 338.95 c-4.30 -1.05 -6.75 -5.40 -6.75 -12.10 l0 -3.45 4.65 -4.80 c4.15 -4.35 5.05 -5.60 6.05 -8.70 0.15 -0.50 0.65 -0.90 1.10 -0.90 0.70 0 0.80 0.40 0.55 2.50 -0.25 2.15 -0.15 2.65 0.80 3.70 1.10 1.20 1.65 2.20 2.70 4.80 0.30 0.70 0.75 1.80 1.05 2.50 0.25 0.70 0.75 2.25 1.10 3.50 1.60 5.85 2 6.50 3.80 6.50 2 0 2.05 0.15 0.65 2.05 -1.45 2.05 -4.70 3.80 -8.15 4.40 -3.45 0.65 -4.80 0.65 -7.55 0z"/>
  <path d="M195.25 296 c-1.35 -0.55 -3.70 -2.05 -5.20 -3.40 l-2.65 -2.35 -0.45 -5.75 c-0.50 -7.25 -1.10 -10.40 -3.25 -17 -3.50 -10.65 -7.10 -17 -20.40 -36 -7.90 -11.25 -12.10 -17.85 -11.70 -18.25 0.10 -0.10 6.35 5.95 13.90 13.50 10.50 10.50 13.50 13.75 12.60 13.75 -1 0 -0.30 1.60 7.60 17.45 8.80 17.55 12.05 25.45 13.30 32.55 0.65 3.60 1 4 3.40 4 1.10 0 1.60 -0.25 1.60 -0.75 0 -0.65 0.50 -0.75 2.40 -0.60 3.90 0.30 4.10 0.85 0.80 2.25 -4.05 1.70 -8.65 1.95 -11.95 0.60z"/>
  <path d="M320.50 290.75 c0 -0.25 0.95 -4.60 2.10 -9.60 1.40 -6.25 2.30 -9.15 2.75 -9.15 0.35 0 0.65 -0.20 0.65 -0.50 0 -0.25 0.40 -0.50 0.95 -0.50 1.60 0 0.90 3.30 -2.40 11.65 -1.75 4.35 -4 8.85 -4.05 8.10z"/>
  <path d="M267.50 259.30 c0 -0.35 6.30 -27.40 9.85 -42.30 4.05 -17.20 7.35 -26.05 9.90 -26.70 1.35 -0.35 10.05 -6.95 10.35 -7.90 0.15 -0.45 1.25 -0.65 3.45 -0.60 4 0.05 7.35 1.45 9 3.75 1.10 1.60 1.20 2.10 1.15 7.95 -0.05 5.05 -0.35 7.65 -1.60 13.45 -0.90 3.95 -1.60 7.30 -1.60 7.40 0 0.05 -0.25 0.15 -0.55 0.15 -0.80 0 -1.95 -1.35 -1.95 -2.35 0 -0.50 -0.20 -0.70 -0.40 -0.40 -0.20 0.30 -1.20 1.05 -2.25 1.75 -1 0.70 -2 1.70 -2.15 2.25 -0.15 0.55 -0.85 1.55 -1.50 2.25 -1.25 1.35 -4.70 8.40 -6.20 12.65 -0.50 1.45 -1.05 3 -1.25 3.50 -0.25 0.65 -0.10 0.85 0.65 0.85 0.60 0 1.20 -0.20 1.35 -0.50 0.15 -0.25 1.15 -0.50 2.15 -0.50 l1.85 0.05 -4 3.75 c-2.20 2.05 -8.50 7.50 -14 12.15 -9.05 7.60 -12.25 10.05 -12.25 9.35z"/>
  <path d="M323.85 240.80 c1.95 -2.40 2.50 -2.50 2.90 -0.70 0.40 1.80 -0.25 2.40 -2.65 2.40 l-1.70 0 1.45 -1.70z"/>
  <path d="M348.05 230.45 c-0.35 -1.15 -1.55 -4.10 -2.60 -6.60 -1.10 -2.50 -1.90 -4.80 -1.75 -5.15 0.15 -0.35 2.45 -3.40 5.15 -6.80 2.70 -3.40 5.50 -7 6.15 -8 0.70 -1.05 1.40 -1.90 1.65 -1.90 0.60 0 0.40 3.40 -0.25 4.10 -1.45 1.50 -2.40 3.95 -2.40 6 0 2.85 -1.20 8.50 -2.55 11.90 -0.60 1.50 -1.20 4.05 -1.30 5.65 -0.30 3.45 -1.20 3.80 -2.10 0.80z"/>
  <path d="M194.15 222.50 c-3.40 -3.40 -6.15 -6.40 -6.15 -6.60 0 -0.20 0.70 -0.40 1.50 -0.40 1 0 1.50 0.25 1.50 0.75 0 0.40 0.40 0.75 0.90 0.75 1.20 0 5.60 4.65 5.60 5.95 0 0.80 0.30 1.05 1.25 1.05 1.50 0 1.90 0.75 1.65 3.05 l-0.15 1.65 -6.10 -6.20z"/>
  <path d="M202.50 220.55 c-2.25 -0.45 -5 -2.45 -5 -3.60 0 -0.75 0.50 -0.95 2.85 -1.05 l2.90 -0.15 2.10 -9.50 c3.55 -15.80 4.20 -20.10 4.50 -30.60 0.25 -9 0.35 -9.65 1.20 -9.65 0.70 0 0.95 0.35 0.95 1.25 0 0.70 0.20 1.25 0.50 1.25 1.15 0 5.15 5.05 6.90 8.75 2.90 5.90 3.35 8.35 3.35 17.50 0 6.05 -0.25 8.80 -0.90 11.25 -1.80 6.50 -5.65 12.25 -9.30 13.80 -2.05 0.85 -7.65 1.30 -10.05 0.75z"/>
  <path d="M163.75 192.15 c-5.75 -5.85 -10.55 -10.95 -10.65 -11.40 -0.25 -1.05 3 -5.75 5.10 -7.40 3.10 -2.45 6.20 -3.55 10.05 -3.55 5.10 -0.05 7.35 1.05 9.05 4.55 1.30 2.55 1.35 3 1.05 8.05 -0.30 5.85 -2.60 18.65 -3.55 19.70 -0.45 0.50 -2.80 -1.60 -11.05 -9.95z"/>
  <path d="M342 180.40 c0 -0.35 -0.15 -1.50 -0.30 -2.50 -0.30 -1.85 -0.30 -1.90 1.25 -1.90 1.20 0 1.55 -0.20 1.55 -1 0 -0.80 0.35 -1 1.50 -1 l1.45 0 -2.30 3.50 c-2.25 3.35 -3.15 4.20 -3.15 2.90z"/>
 </g>
 <g fill="#dbdbdb">
  <path d="M260.50 387.45 c6 -5.95 7.25 -6.80 11 -7.15 3.95 -0.40 7.20 -1.05 11.50 -2.30 1.80 -0.50 4.60 -1.20 6.25 -1.50 1.65 -0.35 3.65 -0.80 4.45 -1.05 0.80 -0.25 2.15 -0.45 2.95 -0.45 2.80 0 10.55 -2.90 14.20 -5.30 3.35 -2.25 7.55 -8.50 9.50 -14.20 0.70 -2.05 2.95 -10.75 3.60 -14 0.25 -1.25 1.05 -5.30 1.75 -9 0.75 -3.70 1.60 -7.60 1.90 -8.60 0.30 -1 0.40 -2.30 0.25 -2.85 -0.15 -0.60 0 -0.95 0.30 -0.90 0.30 0.05 0.55 -0.20 0.60 -0.50 0 -0.35 0.70 -1.25 1.50 -2.05 0.85 -0.75 1.85 -1.90 2.25 -2.55 0.40 -0.60 1.75 -2.55 3 -4.30 3.15 -4.50 4.80 -6.95 4.85 -7.25 0.10 -0.50 3.30 -6.25 3.80 -6.75 0.25 -0.25 0.20 0 -0.10 0.65 -0.35 0.60 -1.35 4.55 -2.30 8.75 -0.95 4.20 -2.35 10.30 -3.15 13.60 -0.80 3.30 -2.05 8.70 -2.80 12 -2.55 11.40 -5.90 24.50 -7.10 28.25 -2.35 6.90 -5.40 12.05 -9.45 15.95 -4.10 3.85 -6.10 5.05 -11.45 6.80 -3.80 1.20 -4.25 1.30 -17.80 3.95 -15.10 2.95 -19.25 3.40 -25.65 2.75 -4.15 -0.40 -4.55 -0.40 -6 0.65 -0.90 0.60 0.10 -0.55 2.15 -2.65z"/>
  <path d="M135 389.55 c-4.20 -0.70 -9.75 -1.55 -12.20 -1.85 -1.75 -0.20 -2.25 -0.45 -1.90 -0.80 0.40 -0.40 0.80 -0.40 1.20 -0.05 0.35 0.25 1.80 0.50 3.25 0.55 3 0.10 5.20 -0.90 8.45 -3.90 2.90 -2.70 3.35 -2.85 9.20 -3.20 7.80 -0.45 12.85 -1.90 20.45 -5.80 15.20 -7.80 27.10 -25.20 32.75 -47.70 l1.60 -6.45 3 -0.10 c1.60 -0.05 4.15 -0.25 5.65 -0.50 2.70 -0.40 2.70 -0.40 1.70 0.60 -0.55 0.55 -1.15 2 -1.35 3.20 -0.15 1.20 -0.85 4 -1.55 6.20 -0.65 2.20 -1.60 5.35 -2.05 7 -1.35 4.60 -5.05 13.55 -7.30 17.75 -10 18.40 -25.20 30.45 -43.20 34.25 -4.10 0.85 -14.50 1.35 -17.70 0.80z"/>
  <path d="M116.20 384.60 c-0.55 -0.45 -1.55 -1.65 -2.20 -2.60 -0.65 -0.95 -2.65 -3.30 -4.45 -5.25 -2.05 -2.15 -4.15 -5.10 -5.45 -7.60 -1.15 -2.25 -2.50 -4.35 -3 -4.60 -1.60 -0.95 0.40 -0.55 2.55 0.45 2.25 1.10 9.10 3 10.80 3 0.60 0 1.05 0.30 1.05 0.75 0 0.45 -0.45 0.75 -1.10 0.75 -1.05 0 -1.05 0 -0.10 0.75 0.90 0.65 0.90 0.70 -0.30 0.40 -1.20 -0.25 -1.20 -0.25 -0.30 0.45 0.65 0.50 0.75 0.85 0.40 1.10 -0.95 0.60 -0.70 5.60 0.35 7.95 0.55 1.15 1.70 2.85 2.55 3.75 1.70 1.65 1.05 2.25 -0.80 0.70z"/>
  <path d="M228.45 363.55 c-0.70 -0.25 -0.75 -0.40 -0.20 -0.90 0.50 -0.50 0.75 -0.45 0.95 0.20 0.40 1 0.25 1.10 -0.75 0.70z"/>
  <path d="M271.40 339.65 c-1.05 -0.25 -1.20 -0.80 -1.90 -5.85 -0.70 -5.40 0.25 -13.25 2.70 -22.40 0.45 -1.60 1.10 -4.10 1.50 -5.50 0.35 -1.45 1.05 -3.55 1.45 -4.65 0.40 -1.10 1.35 -3.55 2.05 -5.40 0.75 -1.90 1.85 -4.35 2.45 -5.50 0.65 -1.15 1.45 -3.10 1.85 -4.35 0.35 -1.25 1.10 -2.85 1.60 -3.60 0.50 -0.70 0.90 -1.90 0.90 -2.55 0 -0.70 0.25 -1.45 0.50 -1.60 0.30 -0.15 0.50 -0.75 0.50 -1.30 0 -0.90 0.40 -0.95 5.25 -0.95 2.90 0 5.25 0.10 5.25 0.20 0 0.10 -1.70 7.55 -3.75 16.55 -2.05 9 -3.75 16.45 -3.75 16.60 0 0.10 -0.55 0.40 -1.25 0.65 -1.35 0.50 -1.70 1.50 -0.50 1.50 0.40 0 0.75 0.40 0.70 0.90 0 1.10 -2.35 8.05 -2.40 7.25 -0.05 -0.85 -0.95 -0.80 -1.85 0.10 -0.80 0.75 -0.75 0.80 1.15 1.35 0.90 0.25 -2.90 8.95 -5.55 12.90 -2.75 4 -5.20 6 -6.90 5.65z m13.25 -22 c-0.95 -0.35 -0.80 -1.15 0.25 -1.20 0.70 0 0.70 -0.10 -0.15 -0.40 -0.60 -0.25 -1.15 -0.20 -1.35 0.15 -0.70 1.05 -0.40 1.80 0.75 1.75 0.60 0 0.80 -0.15 0.50 -0.30z m1 -3 c-0.90 -0.35 -0.80 -1.15 0.10 -1.15 0.40 0 0.75 -0.20 0.75 -0.50 0 -0.75 -0.95 -0.60 -1.80 0.25 -0.90 0.85 -0.50 1.75 0.70 1.70 0.55 0 0.60 -0.15 0.25 -0.30z"/>
  <path d="M140 335.70 c-0.75 -0.20 -2.25 -3.80 -3.50 -8.20 -0.65 -2.30 -1.30 -4.10 -2.05 -5.60 -0.25 -0.50 -0.45 -1.10 -0.45 -1.40 0 -0.80 -2.55 -4.50 -3.10 -4.50 -0.95 0 -1.85 -1.40 -1.55 -2.45 0.15 -0.55 0.45 -0.90 0.70 -0.75 0.25 0.15 0.45 -0.05 0.50 -0.40 0 -0.35 0.10 -1.95 0.25 -3.55 0.45 -4.45 -0.50 -7.50 -3.10 -10 -1.20 -1.15 -2.20 -2.25 -2.20 -2.45 0 -0.85 0.95 -0.30 2.90 1.60 1.80 1.75 2.30 2 4.40 2 1.30 0 3.05 0.20 3.90 0.45 0.85 0.25 2.55 0.75 3.80 1.05 1.25 0.35 2.65 0.80 3.10 1.05 2.80 1.45 4.20 -0.15 4.05 -4.55 -0.15 -4.70 -0.65 -8.70 -1.20 -9.25 -0.25 -0.25 -0.45 -1.05 -0.45 -1.75 0 -0.70 -0.35 -1.75 -0.75 -2.30 -0.40 -0.50 -0.75 -1.35 -0.75 -1.80 0 -0.50 -1.50 -2.55 -3.30 -4.65 -1.80 -2.05 -3.05 -3.75 -2.80 -3.75 0.30 0 3.20 2.65 6.55 5.90 6.70 6.50 7.05 7.20 7.80 15.15 0.75 8.30 -2.25 23.50 -6.50 32.70 -1.65 3.55 -4.25 7.45 -4.25 6.35 0 -0.35 -0.35 -0.60 -0.75 -0.60 -0.90 0 -0.95 0.60 -0.15 1.40 0.60 0.60 0.30 0.65 -1.10 0.30z"/>
  <path d="M199 296.25 c0 -0.40 -0.20 -0.75 -0.45 -0.75 -0.25 0 -0.70 -1.50 -1.05 -3.35 -1.25 -7.35 -4.40 -14.90 -14.55 -35.20 -5.45 -11 -9.95 -20.10 -9.95 -20.30 0 -0.20 0.25 -0.10 0.60 0.25 0.35 0.35 1.05 0.60 1.55 0.60 0.60 0 5.30 4.30 12.05 11 6.40 6.35 10.60 10.85 9.95 10.65 -0.65 -0.15 -1.05 -0.45 -0.90 -0.65 0.15 -0.20 -0.30 -0.50 -0.95 -0.60 l-1.25 -0.25 1.20 3.15 c0.65 1.70 1.45 3.60 1.75 4.20 0.30 0.60 1.25 2.65 2.10 4.65 4.55 10.85 6 15.15 7 20.45 0.50 2.70 0.80 3.35 1.40 3.15 0.45 -0.15 1.25 0.10 1.80 0.50 0.95 0.70 0.95 0.70 -0.05 0.75 -0.60 0 -1.30 0.25 -1.65 0.60 -0.45 0.45 -0.60 0.45 -0.60 0 0 -0.35 -0.35 -0.60 -0.75 -0.60 -0.40 0 -0.75 0.30 -0.75 0.70 0 0.95 -1.55 1.45 -3.20 1 -0.80 -0.20 -1.30 -0.10 -1.30 0.25 0 0.30 -0.45 0.55 -1 0.55 -0.55 0 -1 -0.35 -1 -0.75z"/>
  <path d="M214.50 291.05 c0 -0.55 1.95 -1.25 2.35 -0.90 0.15 0.15 0.10 0.50 -0.10 0.80 -0.40 0.65 -2.25 0.75 -2.25 0.10z"/>
  <path d="M220.40 288.40 c0.25 -1 2 -1.70 2.65 -1.05 0.25 0.25 -0.25 0.75 -1.25 1.20 -1.55 0.70 -1.65 0.70 -1.40 -0.15z"/>
  <path d="M223.85 286.65 c-0.20 -0.15 -0.35 -0.60 -0.35 -1 0 -0.55 0.20 -0.55 0.95 -0.05 0.55 0.35 0.85 0.80 0.75 1 -0.30 0.50 -0.90 0.50 -1.35 0.05z"/>
  <path d="M324.50 273.50 c0.65 -4.15 2.70 -12.65 2.90 -12.10 0.10 0.35 0.55 0.60 0.95 0.60 0.65 0 0.75 0.50 0.40 3.40 -0.35 3.35 -1.65 9.90 -1.70 8.75 -0.05 -1 -1.05 -0.75 -2.05 0.45 -0.85 1.10 -0.85 1.05 -0.50 -1.10z"/>
  <path d="M329 260 c0 -0.25 -0.35 -0.50 -0.75 -0.50 -0.85 0 -1 -0.80 -0.25 -1.25 0.25 -0.15 0.35 -0.60 0.20 -0.95 -0.15 -0.35 0.05 -0.80 0.45 -0.95 0.50 -0.20 0.70 0.25 0.70 1.95 0 1.20 -0.10 2.20 -0.20 2.20 -0.05 0 -0.15 -0.20 -0.15 -0.50z"/>
  <path d="M312.85 252.15 c-0.15 -0.25 0.05 -0.70 0.45 -1.05 0.60 -0.50 0.70 -0.50 0.70 0.10 0 0.85 -0.80 1.50 -1.15 0.95z"/>
  <path d="M327 249.25 c0 -0.70 0.30 -1.25 0.65 -1.30 0.30 0 0.10 -0.20 -0.50 -0.45 -0.65 -0.25 -1.15 -0.75 -1.15 -1.10 0 -0.30 -0.70 -1.35 -1.60 -2.25 l-1.60 -1.65 -1.80 1.60 c-1 0.90 -0.50 0.35 1.10 -1.30 1.60 -1.60 2.90 -3.10 2.90 -3.35 0 -0.70 1.40 0.05 1.75 0.95 0.40 1.10 1.75 8.10 1.75 9.25 0 0.45 -0.35 0.85 -0.75 0.85 -0.45 0 -0.75 -0.45 -0.75 -1.25z"/>
  <path d="M351.85 248.05 c-0.25 -1.45 -0.30 -2.80 -0.15 -2.90 0.35 -0.40 0.90 3.05 0.70 4.40 -0.10 0.75 -0.35 0.15 -0.55 -1.50z"/>
  <path d="M351.25 242.65 c-0.20 -1.05 -0.45 -2.45 -0.60 -3.10 -0.10 -0.70 -0.65 -2.50 -1.15 -4 -1.30 -3.95 -1.70 -8.80 -0.80 -10.20 1.65 -2.55 3.80 -10.85 3.80 -14.75 0 -1.90 0.75 -4 2.15 -5.85 0.20 -0.25 1.20 -1.75 2.25 -3.30 2.95 -4.40 3.55 -5.15 3.85 -4.85 0.65 0.60 0.85 14.85 0.30 19.15 -1.20 9.20 -4.25 17.75 -8 22.45 -1.40 1.75 -1.55 2.20 -1.25 4.15 0.40 2.65 -0.05 2.85 -0.55 0.30z"/>
  <path d="M211.25 239.50 c-0.50 -0.55 -0.80 -1.10 -0.65 -1.25 0.15 -0.15 0.65 0.20 1.15 0.75 0.50 0.55 0.80 1.10 0.65 1.25 -0.15 0.15 -0.65 -0.20 -1.15 -0.75z"/>
  <path d="M289 238.40 c0.15 -4.10 6.10 -19.10 8.70 -21.90 0.65 -0.70 1.35 -1.70 1.50 -2.25 0.15 -0.55 1.15 -1.55 2.15 -2.25 1.05 -0.70 2.20 -1.65 2.55 -2.10 0.35 -0.50 1.15 -0.90 1.80 -0.90 0.60 0 1.35 -0.25 1.65 -0.55 0.30 -0.30 0.95 -0.45 1.45 -0.30 0.80 0.20 0.75 0.25 -0.15 0.30 -1.10 0.05 -1.70 1.05 -0.65 1.05 0.30 0 0.50 0.35 0.50 0.75 0 0.40 -0.35 0.75 -0.75 0.75 -0.40 0 -0.75 0.25 -0.75 0.50 0 0.30 0.25 0.50 0.50 0.50 0.80 0 0.60 1.80 -0.95 8.30 -0.85 3.80 -1.80 6.65 -2.50 7.50 -2.15 2.80 -9.60 9.10 -10.50 8.85 -0.45 -0.10 -1.45 0.35 -2.20 1.05 -1.55 1.40 -2.35 1.65 -2.35 0.70z"/>
  <path d="M204.55 232.90 c-2.85 -2.80 -5.35 -5.65 -5.60 -6.30 -0.25 -0.65 -0.65 -1.05 -0.90 -0.90 -0.45 0.30 -1.45 -0.65 -2.30 -2.40 -0.35 -0.55 -0.85 -1 -1.15 -0.90 -0.35 0.05 -0.60 -0.25 -0.60 -0.70 0 -0.40 -0.20 -0.60 -0.50 -0.45 -0.25 0.15 -0.50 0 -0.50 -0.40 0 -0.80 -1.70 -2.50 -2.10 -2.10 -0.35 0.40 -1.30 -0.85 -1.50 -2 -0.15 -0.95 0.10 -1 4.60 -0.80 4.35 0.15 4.90 0.30 6.85 1.65 1.80 1.30 2.50 1.50 5.25 1.50 3.85 0 6.10 -0.90 8.45 -3.45 4.50 -4.70 6.65 -11.50 6.65 -20.90 0.05 -7.55 -0.55 -10.35 -3.30 -16 -1.70 -3.60 -5.75 -8.75 -6.85 -8.75 -0.20 0 -0.70 -1.65 -1.05 -3.60 -0.35 -2 -0.95 -5.05 -1.35 -6.80 -0.40 -1.75 -0.60 -3.30 -0.45 -3.45 0.15 -0.20 0.30 -0.05 0.30 0.20 0 0.30 1.50 1.40 3.40 2.45 4.90 2.70 11.30 9.35 13.95 14.50 3.95 7.60 5.55 16.90 4.60 27.25 -1 11.90 -3.95 19.30 -10.10 25.40 -3.30 3.35 -8.40 6.40 -12 7.25 l-1.40 0.35 1.50 1.75 c1.35 1.50 1.95 2.70 1.40 2.70 -0.10 0 -2.50 -2.30 -5.30 -5.10z"/>
  <path d="M342 180.15 c0 -1.05 -0.45 -3.75 -1 -6.05 -0.55 -2.30 -1 -4.25 -1 -4.40 0 -0.10 1.25 0.65 2.85 1.60 l2.80 1.85 0.85 -1.15 c0.60 -0.80 1.15 -1.05 1.75 -0.80 0.80 0.30 0.85 0.40 0.05 1.20 -0.45 0.50 -0.80 1.10 -0.80 1.30 0 1 -2.75 3.80 -3.70 3.80 -0.75 0 -0.85 0.15 -0.35 0.45 0.55 0.35 0.50 0.75 -0.20 2.25 -0.50 1 -0.95 1.80 -1.05 1.80 -0.10 0 -0.20 -0.85 -0.20 -1.85z"/>
  <path d="M155.75 176.25 c1.75 -2.40 2.20 -2.80 5.90 -4.75 3.45 -1.85 3.85 -1.65 0.50 0.25 -1.35 0.75 -3.60 2.55 -5.10 3.95 -2.70 2.50 -2.70 2.50 -1.30 0.55z"/>
 </g>
<g opacity="0.5" transform="rotate(-45, 218.0, 218.0)">
  <text x="50%" y="50%" font-size="20" text-anchor="middle" fill="lightgray" dominant-baseline="middle">
    generated by vectorizer.io
  </text>
</g>
</svg>